<?xml version="1.0" encoding="UTF-8" standalone="no"?>
<!-- Created with Inkscape (http://www.inkscape.org/) -->

<svg
   width="157.62613mm"
   height="224.98904mm"
   viewBox="0 0 157.62613 224.98904"
   version="1.1"
   id="svg1"
   xmlns="http://www.w3.org/2000/svg"
   xmlns:svg="http://www.w3.org/2000/svg">
  <defs
     id="defs1" />
  <g
     id="layer1"
     transform="translate(-26.193747,-15.687735)">
    <path
       style="fill:none;stroke:#000000;stroke-width:0.251964;stroke-linecap:square;stroke-linejoin:miter;stroke-miterlimit:4;stroke-dasharray:none;stroke-opacity:1"
       d="m 47.374847,120.07798 -2.04385,6.825 -0.908448,-0.25697 -0.888605,2.32449 1.125954,0.28994 -4.494569,14.05115 -11.921253,-3.66247 c 1.055726,-4.24207 3.959387,-14.293 3.959387,-14.293 l 1.340814,0.40511 0.752861,-2.26289 -1.490117,-0.45616 2.130458,-6.82304 12.437368,3.85884"
       id="path33"
       room="capistrano" />
    <path
       style="fill:none;stroke:#000000;stroke-width:0.251964;stroke-linecap:square;stroke-linejoin:miter;stroke-miterlimit:4;stroke-dasharray:none;stroke-opacity:1"
       d="m 52.539954,18.625186 -4.541589,-0.237545 -0.04543,1.448174 -2.507375,-0.115338 -0.326125,7.425776 -2.269065,-0.11826 -0.205167,4.235614 2.349605,0.07793 -0.119797,2.795282 13.187995,0.565192 -0.685139,15.986773 -1.754686,-0.08571 -0.107672,1.756372 -12.53856,-0.53736 -0.173875,3.832393 1.669826,0.08382 -0.439889,10.264225 17.298916,0.696713 0.270771,-7.339706 1.180059,0.02868 0.171304,-3.997131 0.113852,-2.390973 0.79522,-19.066189 -0.709646,-0.05318 0.169892,-4.434153 0.740239,0.05449 0.179869,-4.707813 0.391579,-8.626151 -8.661277,-0.348425 -0.114114,2.948768 -3.319725,-0.142272"
       id="path32"
       room="yosemite" />
    <path
       style="fill:none;stroke:#000000;stroke-width:0.251964;stroke-linecap:square;stroke-linejoin:miter;stroke-miterlimit:4;stroke-dasharray:none;stroke-opacity:1"
       d="m 96.386396,74.345545 0.3901,-1.154062 -0.0938,-0.243079 -0.73381,-0.408865 0.7393,-2.375553 -20.445462,-6.350956 0.43174,-1.655792 -2.255268,-0.910157 -1.83511,5.775255 11.419537,3.395775 -1.508208,4.931101 -2.99788,-0.929723 1.01105,-3.424352 -6.388042,-2.023372 -2.655325,8.812854 20.210689,6.291857 0.4817,-1.554699 0.627534,0.191521 1.295422,-3.970846 -0.68089,-0.192932 0.94291,-3.12166 -3.291892,-1.036897 -1.025347,3.226711 -3.490356,-1.187262 1.49883,-4.671428 8.217398,2.471309"
       id="path31"
       room="kadema" />
    <path
       style="fill:none;stroke:#000000;stroke-width:0.251964;stroke-linecap:square;stroke-linejoin:miter;stroke-miterlimit:4;stroke-dasharray:none;stroke-opacity:1"
       d="m 82.949073,185.05344 1.175003,1.18874 1.198727,0.10392 0.586039,-0.90398 -1.263359,-1.19077 2.57596,-9.02467 -11.483931,-3.60957 0.839444,-2.5464 1.86497,0.63861 c 0,0 -0.2109,0.87539 1.065606,0.9625 -0.153561,0.49781 0.74069,1.88292 2.26095,0.81845 -0.363689,0.78304 1.522721,1.43219 2.187552,0.30392 0.173491,0.14054 1.197003,0.0215 1.061834,-0.33892 l 2.12141,0.82561 1.243977,-3.71035 0.675296,0.30303 0.563638,-1.54593 -0.589911,-0.12949 1.007103,-3.10752 0.554025,0.10868 0.405643,-1.27161 -0.601774,-0.26135 1.037397,-3.5283 -2.445791,-0.69415 -13.459158,-4.20912 0.560528,-2.08636 -1.409453,-0.35639 -0.632415,1.98608 -5.002501,-1.68115 -1.196839,3.42777 -0.868728,-0.30518 -0.493138,1.18817 0.861448,0.39332 -1.158106,2.95307 -0.845202,-0.17984 -0.54803,1.2226 0.80492,0.36376 -1.174176,3.45063 6.665298,2.25593 -0.267728,0.85282 -1.378449,-0.48729 -0.421377,1.39354 1.405246,0.49543 -0.198888,0.75857 -6.915695,-2.31832 -3.296706,9.33267 -0.97439,-0.27119 -0.385041,1.09736 1.385367,0.36673 -0.411712,1.16803 1.470288,0.40803 0.426297,-1.30401 z"
       id="path30"
       room="library" />
    <path
       style="fill:none;stroke:#000000;stroke-width:0.251964;stroke-linecap:square;stroke-linejoin:miter;stroke-miterlimit:4;stroke-dasharray:none;stroke-opacity:1"
       d="m 98.106846,120.39084 11.341674,3.76197 0.26588,-0.70753 0.69349,0.28717 1.13573,-3.30955 -0.53754,-0.18679 0.33903,-1.0249 -2.67508,-0.90188 1.19698,-3.6353 -3.95737,-1.38504 -1.36426,3.26823 -5.813114,-1.70801 -8.275884,-2.65946 -1.119924,-0.43066 -0.812661,1.61495 -0.523869,-0.26064 -0.799674,1.84318 0.662971,0.28411 -0.441993,1.11856 1.205008,0.48861 -0.154073,0.53019 2.484374,0.77461 z"
       id="path29"
       room="brighton" />
    <path
       style="fill:none;stroke:#000000;stroke-width:0.251964;stroke-linecap:square;stroke-linejoin:miter;stroke-miterlimit:4;stroke-dasharray:none;stroke-opacity:1"
       d="m 141.34466,131.40512 0.5445,-1.95745 5.01371,1.43995 1.83455,-6.06863 1.05486,0.41649 2.39886,-7.4464 -1.12316,-0.37564 1.9519,-6.74313 -11.56992,-3.64653 -2.51372,7.59297 1.29342,0.40746 -1.62424,5.26851 -1.3826,-0.43141 -2.42641,7.61948 -3.56253,-1.13781 0.73657,-2.3529 -15.22982,-4.82093 -1.86215,5.44572 1.60244,0.61422 -0.31577,0.97248 9.61587,2.81847 -0.45126,1.6208 4.08329,1.22581 1.30017,-3.79551 z"
       id="path28"
       room="sequoia_humboldt" />
    <path
       id="path26"
       style="fill:none;stroke:#000000;stroke-width:0.251964;stroke-linecap:square;stroke-linejoin:miter;stroke-miterlimit:4;stroke-dasharray:none;stroke-opacity:1"
       d="m 77.410621,54.800442 -3.892392,-1.205368 1.944832,-5.331839 1.179335,0.392932 1.112144,0.693913 2.389634,-6.515957 1.012113,0.06527 7.232133,2.310867 m -10.977799,9.590184 -0.931359,2.749993 6.476485,2.0438 3.713632,1.208215 0.243379,-0.59116 5.619545,1.565734 1.19865,-3.449587 2.259803,0.375313 0.26344,-1.324993 1.32649,0.228482 1.46094,-7.44457 -0.48536,-0.117125 0.27345,-1.599527 -5.343959,-1.702789 -5.097337,-1.53197"
       room="lassen" />
    <path
       style="fill:none;stroke:#000000;stroke-width:0.251964;stroke-linecap:square;stroke-linejoin:miter;stroke-miterlimit:4;stroke-dasharray:none;stroke-opacity:1"
       d="m 96.652546,29.577364 -13.402915,-4.642799 -0.835449,2.677919 -1.535407,-0.502765 -0.798214,2.360768 15.101675,4.991441 6.325734,-0.527519 1.79018,-0.231517 -3.342814,-14.621707 -5.493515,1.521175 z"
       id="path25"
       room="sacramento" />
    <path
       style="fill:none;stroke:#000000;stroke-width:0.251964;stroke-linecap:square;stroke-linejoin:miter;stroke-miterlimit:4;stroke-dasharray:none;stroke-opacity:1"
       d="m 100.23744,101.90659 14.44584,4.37751 -0.28805,1.06123 0.83512,0.21093 -1.16392,3.70152 -0.77769,-0.28377 -0.25709,0.66588 -13.362844,-4.16822 -5.624677,-1.75247 -1.760406,-0.7287 0.108135,-0.52078 -0.75561,-0.20664 0.217343,-1.27092 -0.766898,-0.20888 0.843541,-2.31504 0.822539,0.34086 0.293925,-0.76938 1.00939,0.3331 0.180308,-0.631512 1.42524,0.437622 1.18646,-3.185655 4.532014,1.462207 -1.14267,3.451108"
       id="path24"
       room="alpine" />
    <path
       style="fill:none;stroke:#000000;stroke-width:0.251964;stroke-linecap:square;stroke-linejoin:miter;stroke-miterlimit:4;stroke-dasharray:none;stroke-opacity:1"
       d="m 116.00589,91.527186 1.93239,-6.022405 3.61768,1.09727 -3.59231,11.857709 -22.956014,-7.046129 3.73758,-11.9373 3.595504,1.1042 -1.97168,6.162582 z"
       id="path23"
       room="calaveras" />
    <path
       style="fill:none;stroke:#000000;stroke-width:0.251964;stroke-linecap:square;stroke-linejoin:miter;stroke-miterlimit:4;stroke-dasharray:none;stroke-opacity:1"
       d="m 139.39004,170.81324 -0.55172,-0.26445 -1.31879,2.63618 0.62866,0.3492 0.44248,-0.94604 9.24203,4.77797 5.02606,10.30583 2.58284,-1.17568 0.69855,1.51772 2.215,-1.0312 -0.28984,-0.73573 0.86496,-0.48571 -5.50744,-11.25117 -2.33815,1.1056 -0.36941,-0.77942 -1.80821,-0.96193 0.3569,-0.82886 -8.734,-4.43395 z"
       id="path22"
       room="tscannen" />
    <path
       style="fill:none;stroke:#000000;stroke-width:0.251964;stroke-linecap:square;stroke-linejoin:miter;stroke-miterlimit:4;stroke-dasharray:none;stroke-opacity:1"
       d="m 91.399688,198.6771 4.055288,7.47782 3.98197,-2.09035 0.779524,-2.59888 9.73206,3.04937 0.30067,-0.98801 2.84671,-1.50939 1.31712,0.42686 1.92754,-6.07253 -0.84184,-0.2585 -2.30682,-4.14099 0.36877,-0.79945 -1.61973,-2.88734 -2.04619,-0.68053 0.0972,-0.55276 1.41747,-0.19845 c 0,0 1.88371,-0.69775 1.96277,-0.80557 l 3.59588,6.93885 2.38593,-1.15785 0.83234,-2.11499 0.75762,-0.41237 -1.47257,-2.80661 1.3271,-0.68482 1.51019,-4.97743 0.79612,-0.4116 0.12772,-0.36494 -0.1375,-0.26509 0.72137,-2.12063 -2.74188,-0.89598 0.0478,-0.25715 -0.47685,-0.13165 -0.47782,-0.94694 -0.55115,-0.13483 0.24671,-0.54636 -0.1647,-0.48868 -0.48864,0.16382 0.17857,-0.73404 1.20925,0.34868 0.0952,0.37449 2.01445,-1.17377 -0.57927,-1.17459 -6.0741,-1.89083 -0.34616,1.17084 -1.0958,-0.3806 -0.56864,0.27336 0.5498,1.02446 -0.26663,0.17334 -1.53524,-0.54741 -3.30009,1.74915 -0.99566,-1.85882 0.17241,-0.54955 3.29694,-1.67573 -0.55526,-0.87671 -2.74594,-0.82172 -0.56934,0.31011 -0.13341,-0.34023 -1.02124,0.47463 -0.65854,-1.10267 -2.34089,-0.73081 -0.38623,1.20676 2.89737,5.09364 -1.93235,0.95399 -0.2234,0.88099 0.48271,0.8736 -1.74554,0.92696 -0.35973,1.46711 -1.40528,0.79268 -0.67826,1.97273 0.58561,1.02688 -0.21137,0.62055 0.37786,0.68433 -1.13543,0.54418 -1.478174,-2.69651 -0.79769,0.44831 -0.21019,-0.30586 -2.42655,1.26819 0.55526,0.8767 -1.060403,0.50974 1.323423,2.87464 -1.25603,0.76318 -0.540974,1.38491 1.278614,0.42608 0.91188,-0.51785 1.30889,2.35562 -2.999189,1.61407 1.708559,3.40955 z"
       id="path21"
       room="union" />
    <path
       style="fill:none;stroke:#000000;stroke-width:0.251964;stroke-linecap:square;stroke-linejoin:miter;stroke-miterlimit:4;stroke-dasharray:none;stroke-opacity:1"
       d="m 72.992584,186.49191 -1.491276,4.59732 -0.41431,-0.0177 -0.419479,1.32881 0.35516,0.17197 -3.130881,10.2242 5.062287,1.51208 -0.420815,1.38042 0.615922,1.32065 2.666592,-1.8017 c 0,0 6.586365,-3.80977 8.945067,-14.11961 l -1.837386,-0.64881 0.191021,-0.8202 z"
       id="path20"
       room="airc" />
    <path
       style="fill:none;stroke:#000000;stroke-width:0.251964;stroke-linecap:square;stroke-linejoin:miter;stroke-miterlimit:4;stroke-dasharray:none;stroke-opacity:1"
       d="m 140.51705,88.540076 -14.67957,-4.358625 2.0235,-6.370524 1.79057,0.596891 c 0,0 0.62652,-1.010827 1.4591,-0.781621 0.83341,0.230117 0.72153,1.328676 0.72153,1.328676 l 7.78265,2.583152 c 0,0 0.63241,-0.902866 1.46809,-0.501018 0.89146,0.428756 0.52469,1.385915 0.52469,1.385915 l 0.83068,0.293925 0.88439,-2.491929 5.34834,1.886868 -0.64508,2.526704 2.05613,0.652931 -0.32736,1.386178 -0.89698,-0.259112 -0.4795,1.482988 1.9856,0.602621 -2.71971,8.966841 -9.03529,-2.593927 z"
       id="path19"
       room="mendocino" />
    <path
       style="fill:none;stroke:#000000;stroke-width:0.251964;stroke-linecap:square;stroke-linejoin:miter;stroke-miterlimit:4;stroke-dasharray:none;stroke-opacity:1"
       d="m 129.29025,103.35844 4.56025,8.69038 -8.89575,4.55057 -4.83417,-8.63294 z"
       id="path18"
       room="placer" />
    <path
       style="fill:none;stroke:#000000;stroke-width:0.251964;stroke-linecap:square;stroke-linejoin:miter;stroke-miterlimit:4;stroke-dasharray:none;stroke-opacity:1"
       d="m 72.045945,84.565682 1.408938,-4.269841 18.230218,5.50819 -1.818278,5.586831 c 0,0 3.273399,1.672721 0.987991,4.918987 -2.115689,3.004848 -5.112196,0.612803 -5.112196,0.612803 L 85.05592,92.267575 69.159,87.687773 70.18321,84.160656 Z"
       id="path17"
       room="mariposa" />
    <path
       style="fill:none;stroke:#000000;stroke-width:0.251964;stroke-linecap:square;stroke-linejoin:miter;stroke-miterlimit:4;stroke-dasharray:none;stroke-opacity:1"
       d="m 65.813417,223.93249 -3.321278,11.99017 6.494841,1.7994 3.322152,-11.99013 z"
       id="path16"
       room="benicia" />
    <path
       style="fill:none;stroke:#000000;stroke-width:0.251964;stroke-linecap:square;stroke-linejoin:miter;stroke-miterlimit:4;stroke-dasharray:none;stroke-opacity:1"
       d="m 100.44058,161.8226 25.98771,8.28992 1.0359,0.3071 2.60204,0.72624 1.8181,-6.42048 -9.04233,-2.81753 -1.38437,-0.41048 -5.60509,-1.90312 5.01573,-16.38351 5.21267,1.45635 1.5555,-4.89054 -0.16661,-0.0763 -15.89361,-4.88177 -1.31686,4.14419 1.55373,0.50442 -1.12903,3.88866 -1.66499,-0.44176 -0.62374,2.00834 -0.0533,-0.002 -11.528874,-3.15352 -0.76778,2.40673 0.58934,0.24505 -0.78823,2.84282 11.541714,3.56914 0.94382,0.37145 -1.81754,5.61051 -4.25717,-1.37775 -1.81671,6.38814"
       id="path15"
       room="santa_clara" />
    <path
       style="fill:none;stroke:#000000;stroke-width:0.251964;stroke-linecap:square;stroke-linejoin:miter;stroke-miterlimit:4;stroke-dasharray:none;stroke-opacity:1"
       d="m 141.78713,47.647376 -1.09251,3.016297 -0.49606,-0.153486 -0.42251,1.277019 0.50904,0.259124 -2.1203,6.647467 -0.51506,-0.262009 -0.31094,1.268665 0.50958,0.205731 -0.63132,2.328515 0.34795,0.197053 -0.8332,3.115854 1.12374,0.525404 -0.19207,0.476894 6.22918,1.929872 c -0.15352,0.517076 -0.67246,2.184892 -0.67246,2.184892 l -0.56361,-0.171268 -1.46541,4.872514 0.5827,0.154573 -0.0681,0.567148 0.7464,0.299069 -0.20943,1.474422 0.88599,0.249884 0.47211,-1.330937 1.12585,0.312705 1.60643,-4.832319 2.76575,1.094911 -2.08165,6.419696 3.07762,0.948903 0.37237,-0.760767 1.53468,0.437934 0.31498,-0.708935 2.24836,0.621763 3.04431,-9.368877 0.73169,0.111045 0.61515,-2.073511 -0.83431,-0.188999 0.61951,-2.216059 -1.72854,-0.511918 -3.537,-1.202396 1.41176,-4.315256 -1.89677,-0.693387 2.48785,-8.010907 z"
       id="path14"
       room="riverfront_del_norte" />
    <path
       style="fill:none;stroke:#000000;stroke-width:0.251964;stroke-linecap:square;stroke-linejoin:miter;stroke-miterlimit:4;stroke-dasharray:none;stroke-opacity:1"
       d="m 156.80449,44.338849 0.79955,-0.512156 -1.22667,-1.781158 -3.47492,2.191762 -1.67861,-2.412624 3.77732,-2.52557 -5.36503,-9.445554 4.91424,-2.32798 1.26113,-0.820754 -0.45494,-0.64298 2.75642,-2.058802 6.70797,-5.400918 2.58237,3.085347 -0.76347,1.141563 c 0,0 0.0818,0.523656 0.50915,0.685584 1.25189,-0.646015 1.92667,-0.0041 3.06783,-0.130351 l 1.4185,1.637011 c 0.30009,1.150365 -0.37453,2.609229 0.27607,3.774616 -0.35602,0.215921 -1.48866,1.164776 -1.48866,1.164776 0,0 -0.24765,-0.473846 -0.80927,-0.650284 -2.42996,1.306577 -2.63166,-0.627682 -3.73873,0.725956 l 0.77366,1.072586 -7.66583,6.11295 6.54828,9.767723 -1.09955,1.17795 0.73255,1.255591 -2.1879,1.645329 -0.53954,-1.325255 -1.82617,1.132798 -3.12582,-3.788163 0.68468,-0.610777 -1.36461,-2.138216"
       id="path13"
       room="shasta" />
    <path
       style="fill:none;stroke:#000000;stroke-width:0.251964;stroke-linecap:square;stroke-linejoin:miter;stroke-miterlimit:4;stroke-dasharray:none;stroke-opacity:1"
       d="m 165.75451,24.607237 -0.68601,-1.033802 -3.53572,2.752217 2.40832,2.222351 c 2.74798,-1.453196 0.60977,-2.417883 1.81341,-3.940766 z"
       id="path12" />
    <path
       style="fill:none;stroke:#000000;stroke-width:0.251964;stroke-linecap:square;stroke-linejoin:miter;stroke-miterlimit:4;stroke-dasharray:none;stroke-opacity:1"
       d="m 66.093401,69.182272 -0.358902,8.374482 -2.653682,-0.113728 -0.07586,1.769995 -4.326655,-0.185426 0.07271,-1.696573 -3.895738,-0.166958 0.35789,-8.350881 1.744647,0.07477 -0.01824,0.425673 1.497285,0.06417 0.01772,-0.413436 1.735032,0.07436 -0.01656,0.38634 1.947431,0.08346 0.01854,-0.432665 1.637136,0.07016 -0.01686,0.393332 1.189611,0.05098 0.0197,-0.459762 z"
       id="path11"
       room="solano" />
    <path
       style="fill:none;stroke:#000000;stroke-width:0.251964;stroke-linecap:square;stroke-linejoin:miter;stroke-miterlimit:4;stroke-dasharray:none;stroke-opacity:1"
       d="m 59.063778,206.01483 2.357642,-8.03751 -26.865499,-8.24084 -2.524165,7.85698 z"
       id="path10"
       room="tahoe" />
    <path
       style="fill:none;stroke:#000000;stroke-width:0.251964;stroke-linecap:square;stroke-linejoin:miter;stroke-miterlimit:4;stroke-dasharray:none;stroke-opacity:1"
       d="m 75.593965,109.98468 1.35139,0.42395 2.063456,-5.48438 -1.876932,-0.99289 0.447473,-1.90031 1.72156,0.34787 1.056176,-3.333101 -1.611976,-0.800274 0.746181,-2.433928 -2.847039,-0.853205 -3.73843,-1.119958 -0.574052,1.66633 -1.616845,0.478006 -0.856639,2.886298 1.702842,0.805044 -0.945719,2.880728 -2.078256,-0.54529 -1.694123,5.40738 2.07039,0.72885 -0.55702,2.35184 6.40094,1.62024 z"
       id="path9"
       room="eureka" />
    <path
       style="fill:none;stroke:#000000;stroke-width:0.251964;stroke-linecap:square;stroke-linejoin:miter;stroke-miterlimit:4;stroke-dasharray:none;stroke-opacity:1"
       d="m 34.727818,174.4223 0.429706,-0.95446 -0.904964,-0.52216 0.73508,-1.82756 1.238298,0.48828 0.33146,-0.84834 3.529639,1.16968 3.994789,-11.31855 1.897485,0.49289 0.322532,-1.15083 4.260564,1.27806 -0.679815,1.47791 1.958146,0.63034 -1.428306,4.59914 -2.343174,-0.80008 -2.201147,6.14311 3.102269,1.17063 -0.131735,0.64236 1.275096,0.50824 -0.736467,2.0438 -0.944559,-0.27254 -0.445152,1.29444 z"
       id="path8"
       room="amador" />
    <path
       style="fill:none;stroke:#000000;stroke-width:0.251964;stroke-linecap:square;stroke-linejoin:miter;stroke-miterlimit:4;stroke-dasharray:none;stroke-opacity:1"
       d="m 133.70635,153.82885 1.1206,0.35363 0.7716,-2.1894 0.36799,0.13837 0.82035,-2.69345 -0.43634,-0.17808 0.70715,-2.4426 -1.26011,-0.4288 1.00861,-3.67402 -2.15433,-0.79287 0.57199,-1.80215 -4.54651,-1.43043 -2.74608,8.13119 -1.32111,4.03893 -4.63646,-1.43604 -1.76891,6.08984 4.60726,1.09589 -0.29416,1.24487 4.63132,1.41304 0.33277,-0.81763 2.61713,0.55788 z"
       id="path7"
       room="riverside" />
    <path
       style="fill:none;stroke:#000000;stroke-width:0.251964;stroke-linecap:square;stroke-linejoin:miter;stroke-miterlimit:4;stroke-dasharray:none;stroke-opacity:1"
       d="m 121.65255,77.539591 -0.14573,0.376425 2.24797,0.610363 -0.93207,3.624764 -2.08769,-0.570219 -0.10572,0.443817 -18.16156,-5.781962 0.15638,-0.665818 -2.45283,-0.713716 1.02557,-3.170658 2.35526,0.681512 0.1554,-0.540638 z"
       id="path6" />
    <path
       style="fill:none;stroke:#000000;stroke-width:0.251964;stroke-linecap:square;stroke-linejoin:miter;stroke-miterlimit:4;stroke-dasharray:none;stroke-opacity:1"
       d="m 89.807975,145.50998 -9.840297,5.21764 -5.416578,-9.95916 10.02585,-4.86817 z"
       id="path5"
       room="library_quad" />
    <path
       style="fill:none;stroke:#000000;stroke-width:0.251964;stroke-linecap:square;stroke-linejoin:miter;stroke-miterlimit:4;stroke-dasharray:none;stroke-opacity:1"
       d="m 81.449324,137.50227 5.068585,9.57909"
       id="path2" />
    <path
       id="path1"
       style="fill:none;stroke:#000000;stroke-width:0.251964;stroke-linecap:square;stroke-linejoin:miter;stroke-miterlimit:4;stroke-dasharray:none;stroke-opacity:1"
       d="m 87.995718,142.43013 -9.81651,5.03039 m 8.087701,-8.38232 -9.85382,5.1041 m 1.537871,-5.04934 5.294333,9.72624" />
    <text
       xml:space="preserve"
       style="font-style:normal;font-variant:normal;font-weight:normal;font-stretch:normal;font-size:2.82223px;line-height:0;font-family:Cinzel;-inkscape-font-specification:Cinzel;writing-mode:lr-tb;direction:ltr;fill:#000000;fill-opacity:1;stroke:none;stroke-width:0.529167;stroke-opacity:1;paint-order:stroke fill markers"
       x="83.390884"
       y="181.22809"
       id="text3560"
       transform="rotate(14.454)"><tspan
         id="tspan3560"
         x="83.390884"
         y="181.22809"
         style="font-style:normal;font-variant:normal;font-weight:bold;font-stretch:normal;font-size:2.82223px;line-height:0;font-family:Cinzel;-inkscape-font-specification:'Cinzel Bold';fill:#000000;fill-opacity:1;stroke:none;stroke-width:0.529167">Tahoe Hall</tspan></text>
    <text
       xml:space="preserve"
       style="font-style:normal;font-variant:normal;font-weight:bold;font-stretch:normal;font-size:2.82223px;line-height:0;font-family:Cinzel;-inkscape-font-specification:'Cinzel Bold';writing-mode:lr-tb;direction:ltr;fill:#000000;fill-opacity:1;stroke:none;stroke-width:0.529167;stroke-opacity:1;paint-order:stroke fill markers"
       x="43.463295"
       y="179.15422"
       id="text3561"
       transform="rotate(2.4539999)"><tspan
         id="tspan3561"
         x="43.463295"
         y="179.15422"
         style="stroke-width:0.529167">Amador Hall</tspan></text>
    <text
       xml:space="preserve"
       style="font-style:normal;font-variant:normal;font-weight:bold;font-stretch:normal;font-size:2.82223px;line-height:0;font-family:Cinzel;-inkscape-font-specification:'Cinzel Bold';writing-mode:lr-tb;direction:ltr;fill:#000000;fill-opacity:1;stroke:none;stroke-width:0.529167;stroke-opacity:1;paint-order:stroke fill markers"
       x="107.94163"
       y="139.72386"
       id="text3562"
       transform="rotate(14.454)"><tspan
         id="tspan3562"
         x="107.94163"
         y="139.72386"
         style="stroke-width:0.529167">Library</tspan></text>
    <text
       xml:space="preserve"
       style="font-style:normal;font-variant:normal;font-weight:bold;font-stretch:normal;font-size:2.82223px;line-height:0;font-family:Cinzel;-inkscape-font-specification:'Cinzel Bold';writing-mode:lr-tb;direction:ltr;fill:#000000;fill-opacity:1;stroke:none;stroke-width:0.529167;stroke-opacity:1;paint-order:stroke fill markers"
       x="80.011681"
       y="194.84984"
       id="text3563"
       transform="rotate(2.4539999)"><tspan
         id="tspan3563"
         x="80.011681"
         y="194.84984"
         style="stroke-width:0.529167">AIRC</tspan></text>
    <text
       xml:space="preserve"
       style="font-style:normal;font-variant:normal;font-weight:bold;font-stretch:normal;font-size:2.82223px;line-height:0;font-family:Cinzel;-inkscape-font-specification:'Cinzel Bold';writing-mode:lr-tb;direction:ltr;fill:#000000;fill-opacity:1;stroke:none;stroke-width:0.529167;stroke-opacity:1;paint-order:stroke fill markers"
       x="71.491196"
       y="237.0038"
       id="text3564"
       transform="rotate(2.4539999)"><tspan
         id="tspan3564"
         x="71.491196"
         y="237.0038"
         style="stroke-width:0.529167">Benicia Hall</tspan></text>
    <text
       xml:space="preserve"
       style="font-style:normal;font-variant:normal;font-weight:bold;font-stretch:normal;font-size:2.82223px;line-height:0;font-family:Cinzel;-inkscape-font-specification:'Cinzel Bold';writing-mode:lr-tb;direction:ltr;fill:#000000;fill-opacity:1;stroke:none;stroke-width:0.529167;stroke-opacity:1;paint-order:stroke fill markers"
       x="80.011681"
       y="132.29156"
       id="text3565"
       transform="rotate(2.4539999)"><tspan
         id="tspan3565"
         x="80.011681"
         y="132.29156"
         style="stroke-width:0.529167">Library Quad</tspan></text>
    <text
       xml:space="preserve"
       style="font-style:normal;font-variant:normal;font-weight:bold;font-stretch:normal;font-size:2.82223px;line-height:0;font-family:Cinzel;-inkscape-font-specification:'Cinzel Bold';writing-mode:lr-tb;direction:ltr;fill:#000000;fill-opacity:1;stroke:none;stroke-width:0.529167;stroke-opacity:1;paint-order:stroke fill markers"
       x="106.00443"
       y="183.95932"
       id="text3566"
       transform="rotate(2.4539999)"><tspan
         id="tspan3566"
         x="106.00443"
         y="183.95932"
         style="stroke-width:0.529167">Union</tspan></text>
    <text
       xml:space="preserve"
       style="font-style:normal;font-variant:normal;font-weight:bold;font-stretch:normal;font-size:2.82223px;line-height:0;font-family:Cinzel;-inkscape-font-specification:'Cinzel Bold';writing-mode:lr-tb;direction:ltr;fill:#000000;fill-opacity:1;stroke:none;stroke-width:0.529167;stroke-opacity:1;paint-order:stroke fill markers"
       x="163.19846"
       y="30.942705"
       id="text3567"
       transform="rotate(2.4539999)"><tspan
         id="tspan3567"
         x="163.19846"
         y="30.942705"
         style="stroke-width:0.529167">Shashta Hall</tspan></text>
    <text
       xml:space="preserve"
       style="font-style:normal;font-variant:normal;font-weight:bold;font-stretch:normal;font-size:2.82223px;line-height:0;font-family:Cinzel;-inkscape-font-specification:'Cinzel Bold';writing-mode:lr-tb;direction:ltr;fill:#000000;fill-opacity:1;stroke:none;stroke-width:0.529167;stroke-opacity:1;paint-order:stroke fill markers"
       x="82.702347"
       y="33.409161"
       id="text3568"
       transform="rotate(2.4539999)"><tspan
         id="tspan3568"
         x="82.702347"
         y="33.409161"
         style="stroke-width:0.529167">Sacramento Hall</tspan></text>
    <path
       id="text3569"
       style="font-style:normal;font-variant:normal;font-weight:bold;font-stretch:normal;font-size:10.6667px;line-height:0;font-family:Cinzel;-inkscape-font-specification:'Cinzel Bold';writing-mode:lr-tb;direction:ltr;fill:#000000;fill-opacity:1;stroke:none;stroke-width:2;stroke-opacity:1;paint-order:stroke fill markers"
       d="m 203.25781,189.83398 v 0.10743 h 0.15039 c 0.22756,0 0.43691,0.0634 0.62891,0.1914 0.192,0.128 0.33794,0.27395 0.4375,0.4375 h 0.004 l 2.02343,3.33985 v 2.61132 c -0.007,0.18489 -0.0797,0.34536 -0.21484,0.48047 -0.128,0.128 -0.28386,0.19141 -0.46875,0.19141 h -0.0742 -0.0644 v 0.10742 h 0.82226 0.0312 1.53516 0.0332 0.81055 v -0.10742 h -0.0645 -0.0645 c -0.18489,0 -0.3434,-0.0634 -0.47851,-0.19141 -0.13511,-0.13511 -0.20313,-0.29558 -0.20313,-0.48047 v -2.61328 l 2.09375,-3.33789 h 0.008 c 0.10667,-0.16355 0.25527,-0.3095 0.44727,-0.4375 0.19911,-0.128 0.40846,-0.1914 0.62891,-0.1914 h 0.15039 v -0.10743 h -2.54883 v 0.10743 h 0.0625 0.0644 c 0.0996,0 0.18936,0.0344 0.26758,0.10547 0.0782,0.064 0.13171,0.14919 0.16016,0.25585 0.0284,0.0996 0.009,0.19928 -0.0547,0.29883 h 0.004 l -1.58399,2.76172 -1.52344,-2.76367 c -0.0701,-0.14864 -0.0681,-0.29396 0.01,-0.43555 0.0853,-0.14933 0.20684,-0.22265 0.36328,-0.22265 h 0.0645 0.0742 v -0.10743 z m 55.24414,0 v 0.10743 h 0.0645 0.0742 c 0.18489,0 0.34075,0.0661 0.46876,0.20117 0.13511,0.128 0.20577,0.28581 0.21289,0.4707 v 5.9082 c -0.007,0.18489 -0.0778,0.34536 -0.21289,0.48047 -0.12801,0.128 -0.28387,0.19141 -0.46876,0.19141 h -0.0742 -0.0645 v 0.10742 h 0.82032 0.0332 1.53515 0.0313 0.82226 v -0.10742 h -0.0742 -0.0644 c -0.18489,0 -0.34536,-0.0634 -0.48047,-0.19141 -0.128,-0.13511 -0.19601,-0.29558 -0.20312,-0.48047 v -2.70898 h 3.45703 v 2.70898 c 0,0.18489 -0.068,0.34536 -0.20313,0.48047 -0.13511,0.128 -0.29558,0.19141 -0.48047,0.19141 h -0.0625 -0.0762 v 0.10742 h 0.82227 0.0312 1.53711 0.0312 0.82226 v -0.10742 h -0.0762 -0.0625 c -0.18489,0 -0.34536,-0.0634 -0.48047,-0.19141 -0.128,-0.13511 -0.19601,-0.29558 -0.20312,-0.48047 v -5.9082 c 0.007,-0.18489 0.0751,-0.3427 0.20312,-0.4707 0.13511,-0.13511 0.29558,-0.20117 0.48047,-0.20117 h 0.0625 0.0762 v -0.10743 h -0.82226 -0.0312 -1.53711 -0.0312 -0.82227 v 0.10743 h 0.0762 0.0625 c 0.18489,0 0.34536,0.0661 0.48047,0.20117 0.13511,0.128 0.20313,0.28581 0.20313,0.4707 v 2.74024 h -3.45703 v -2.74024 c 0.007,-0.18489 0.0751,-0.3427 0.20312,-0.4707 0.13511,-0.13511 0.29558,-0.20117 0.48047,-0.20117 h 0.0644 0.0742 v -0.10743 h -0.82226 -0.0313 -1.53515 -0.0332 z m 11.9336,0.7793 c -0.007,0.0711 -0.0342,0.17083 -0.084,0.29883 -0.0498,0.12089 -0.10326,0.25231 -0.16015,0.39453 -0.0569,0.13511 -0.11038,0.25927 -0.16016,0.37305 -0.0498,0.10666 -0.0815,0.17999 -0.0957,0.22265 l -2.1836,4.69336 h -0.004 c -0.0996,0.22045 -0.22832,0.37826 -0.38477,0.47071 -0.15644,0.0853 -0.30504,0.12695 -0.44726,0.12695 h -0.043 -0.043 v 0.10742 h 2.13476 v -0.10742 h -0.0859 c -0.12089,0 -0.23053,-0.0489 -0.33008,-0.14844 -0.0983,-0.10528 -0.10814,-0.25494 -0.0332,-0.44336 l 0.41993,-0.97656 h 2.25195 l 0.41992,0.99219 c 0.0664,0.17891 0.0655,0.32617 -0.0293,0.42773 -0.0996,0.0996 -0.21114,0.14844 -0.33203,0.14844 h -0.084 v 0.10742 h 3.13477 v -0.10742 h -0.043 -0.041 c -0.14222,0 -0.29277,-0.0416 -0.44922,-0.12695 -0.15644,-0.0924 -0.28786,-0.25026 -0.39453,-0.47071 h -0.002 l -2.84571,-5.98242 z m -27.44532,0.11719 v 0.16015 0.10547 0.28907 0.0312 1.09961 h 0.11719 v -0.0977 c 0,-0.30578 0.0825,-0.54683 0.2461,-0.72461 0.17066,-0.17778 0.41172,-0.27023 0.7246,-0.27734 h 1.22657 v 5.3125 c -0.007,0.15644 -0.0659,0.29051 -0.17969,0.40429 -0.10667,0.10667 -0.23809,0.16016 -0.39453,0.16016 h -0.0644 -0.0547 v 0.10742 h 0.69336 0.0215 1.49414 0.0312 0.70508 v -0.10742 h -0.0644 -0.0527 c -0.16355,0 -0.30223,-0.0535 -0.41601,-0.16016 -0.11378,-0.11378 -0.17188,-0.24785 -0.17188,-0.40429 v -5.3125 h 1.23828 c 0.30578,0.007 0.54418,0.0996 0.71485,0.27734 0.17778,0.17778 0.26297,0.41883 0.25586,0.72461 v 0.0977 h 0.11718 v -1.09961 -0.0312 -0.28907 -0.10547 -0.16015 c -0.0498,0.0213 -0.13957,0.0458 -0.26757,0.0742 -0.128,0.0213 -0.26934,0.0431 -0.42578,0.0644 -0.15645,0.0142 -0.30239,0.0215 -0.4375,0.0215 h -3.93555 c -0.128,10e-6 -0.27129,-0.007 -0.42774,-0.0215 -0.14933,-0.0213 -0.28801,-0.0477 -0.41601,-0.0762 -0.12089,-0.0284 -0.21335,-0.0483 -0.27735,-0.0625 z m -13.85546,0.01 c -0.0853,0.0284 -0.2412,0.0648 -0.46875,0.10743 -0.22756,0.0356 -0.44417,0.0527 -0.6504,0.0527 h -1.49414 -0.0215 -1.43945 -0.0742 -0.71485 v 0.10742 h 0.0625 0.0762 c 0.15644,0 0.28786,0.0535 0.39453,0.16016 0.11378,0.10667 0.17453,0.24074 0.18164,0.4043 v 5.05664 c -0.007,0.15644 -0.0679,0.29051 -0.18164,0.40429 -0.10667,0.10667 -0.23809,0.16016 -0.39453,0.16016 h -0.0762 -0.0625 v 0.10742 h 0.71485 0.0742 1.43945 0.0215 0.92774 1.81445 0.0312 l 0.40625,-1.96289 h -0.0976 c -0.0925,0.31289 -0.22387,0.5876 -0.39454,0.82227 -0.17066,0.22755 -0.3754,0.4052 -0.61718,0.5332 -0.23467,0.12089 -0.50672,0.17969 -0.8125,0.17969 h -1.25782 v -2.52735 h 1.2168 c 0.24889,0.007 0.44372,0.0897 0.58594,0.2461 0.14933,0.15644 0.22461,0.35127 0.22461,0.58593 v 0.0859 h 0.10547 v -0.91797 -0.0215 -0.38281 -0.0215 -0.91797 h -0.10547 v 0.0742 c 0,0.23467 -0.0753,0.4341 -0.22461,0.59766 -0.14222,0.15644 -0.33705,0.23898 -0.58594,0.24609 h -1.2168 v -2.5918 h 1.53516 c 0.31289,0.007 0.55129,0.0996 0.71484,0.27735 0.17067,0.17778 0.25586,0.42148 0.25586,0.73437 v 0.0977 h 0.10743 v -1.10938 -0.0215 -0.31055 -0.0957 z m 25.46289,0 c -0.0853,0.0284 -0.2412,0.0648 -0.46875,0.10743 -0.22756,0.0356 -0.44612,0.0527 -0.65235,0.0527 h -1.49218 -0.0215 -1.43945 -0.0762 -0.71289 v 0.10742 h 0.0625 0.0762 c 0.15644,0 0.28786,0.0535 0.39453,0.16016 0.11378,0.10667 0.17257,0.24074 0.17969,0.4043 v 5.05664 c -0.007,0.15644 -0.0659,0.29051 -0.17969,0.40429 -0.10667,0.10667 -0.23809,0.16016 -0.39453,0.16016 h -0.0762 -0.0625 v 0.10742 h 0.71289 0.0762 1.43945 0.0215 0.92773 1.8125 0.0332 l 0.4043,-1.96289 h -0.0957 c -0.0924,0.31289 -0.22387,0.5876 -0.39453,0.82227 -0.17067,0.22755 -0.37737,0.4052 -0.61915,0.5332 -0.23466,0.12089 -0.50476,0.17969 -0.81054,0.17969 h -1.25781 v -2.52735 h 1.21484 c 0.24889,0.007 0.44567,0.0897 0.58789,0.2461 0.14933,0.15644 0.22461,0.35127 0.22461,0.58593 v 0.0859 h 0.10547 v -0.91797 -0.0215 -0.38281 -0.0215 -0.91797 h -0.10547 v 0.0742 c 0,0.23467 -0.0753,0.4341 -0.22461,0.59766 -0.14222,0.15644 -0.339,0.23898 -0.58789,0.24609 h -1.21484 v -2.5918 h 1.53515 c 0.31289,0.007 0.55129,0.0996 0.71485,0.27735 0.17066,0.17778 0.25585,0.42148 0.25585,0.73437 v 0.0977 h 0.10743 v -1.10938 -0.0215 -0.31055 -0.0957 z m -40.29883,0.0215 c -0.56178,0 -1.07489,0.0779 -1.53711,0.23437 -0.46222,0.14934 -0.86109,0.37056 -1.19531,0.66211 -0.33423,0.29156 -0.5898,0.6442 -0.76758,1.05664 -0.17778,0.41245 -0.26563,0.87738 -0.26563,1.39649 0,0.512 0.0879,0.97427 0.26563,1.38672 0.17778,0.40533 0.43335,0.75336 0.76758,1.04492 0.33422,0.29156 0.73309,0.51543 1.19531,0.67187 0.46222,0.14934 0.97533,0.22461 1.53711,0.22461 0.56889,0 1.0827,-0.0753 1.54492,-0.22461 0.46222,-0.15644 0.86109,-0.38031 1.19531,-0.67187 0.33423,-0.29156 0.5898,-0.63959 0.76758,-1.04492 0.18489,-0.41245 0.27734,-0.87472 0.27734,-1.38672 0,-0.51911 -0.0924,-0.98404 -0.27734,-1.39649 -0.17778,-0.41244 -0.43335,-0.76508 -0.76758,-1.05664 -0.33422,-0.29155 -0.73309,-0.51277 -1.19531,-0.66211 -0.46222,-0.15644 -0.97603,-0.23437 -1.54492,-0.23437 z m 6.71875,0 c -0.35556,0 -0.67189,0.0634 -0.94922,0.1914 -0.27733,0.12801 -0.50121,0.31291 -0.67188,0.55469 -0.16355,0.24178 -0.26327,0.53367 -0.29882,0.875 -0.0427,0.36267 0.0154,0.69813 0.17187,1.00391 0.16356,0.30578 0.42179,0.54948 0.77735,0.73437 l 1.51562,0.96094 c 0.28445,0.14934 0.48653,0.30254 0.60742,0.45899 0.128,0.14933 0.19141,0.31971 0.19141,0.51171 0,0.25601 -0.10237,0.47988 -0.3086,0.67188 -0.20622,0.192 -0.51528,0.28711 -0.92773,0.28711 -0.37689,0 -0.70048,-0.0779 -0.9707,-0.23438 -0.27023,-0.16355 -0.47692,-0.38016 -0.61914,-0.65039 -0.13512,-0.27022 -0.19126,-0.56476 -0.16993,-0.88476 h -0.0859 c -0.0853,0.13511 -0.156,0.30549 -0.21289,0.51172 -0.0569,0.19911 -0.0886,0.4012 -0.0957,0.60742 -0.007,0.19911 0.0173,0.36949 0.0742,0.51172 0.0996,0.10666 0.24089,0.20373 0.42578,0.28906 0.192,0.0853 0.42048,0.15335 0.6836,0.20312 0.26311,0.0498 0.54773,0.0742 0.85351,0.0742 0.49778,0 0.92835,-0.0753 1.29102,-0.22461 0.36978,-0.15644 0.65706,-0.38031 0.86328,-0.67187 0.21333,-0.29156 0.33023,-0.63693 0.35156,-1.03516 0.0213,-0.384 -0.0493,-0.71024 -0.21289,-0.98047 -0.16355,-0.27022 -0.38743,-0.47691 -0.67187,-0.61914 l -1.67383,-1.03515 c -0.13511,-0.0782 -0.26122,-0.15616 -0.375,-0.23438 -0.10667,-0.0782 -0.19186,-0.16607 -0.25586,-0.26562 -0.0569,-0.10667 -0.0767,-0.22357 -0.0625,-0.35157 0.0142,-0.24889 0.12385,-0.44832 0.33008,-0.59765 0.21333,-0.14934 0.49069,-0.22461 0.83203,-0.22461 0.42667,0 0.75291,0.0951 0.98047,0.28711 0.22755,0.192 0.34179,0.45218 0.34179,0.77929 h 0.0957 l 0.1289,-1.21484 0.01,-0.0859 c -0.001,-4e-4 -0.005,-0.002 -0.006,-0.002 l 0.006,-0.10547 h -0.66797 c -0.0608,-0.006 -0.10746,-0.0167 -0.17383,-0.0215 -0.19911,-0.0213 -0.4012,-0.0385 -0.60742,-0.0527 -0.19911,-0.0142 -0.37145,-0.0215 -0.51367,-0.0215 z m 10.49609,0 -0.82226,5.85547 h -0.01 c -0.0284,0.18489 -0.11098,0.32818 -0.24609,0.42773 -0.128,0.0996 -0.27926,0.14844 -0.45703,0.14844 h -0.0645 -0.0742 v 0.10742 h 0.75586 0.28907 0.33984 0.0644 0.57617 v -0.10742 h -0.14843 c -0.14223,0 -0.24194,-0.0489 -0.29883,-0.14844 -0.0516,-0.0968 -0.0675,-0.17857 -0.0664,-0.25195 l 0.36719,-3.01953 2.46094,3.73047 h 0.0957 c 0.007,-0.16356 0.0408,-0.32864 0.0977,-0.49219 0.064,-0.16356 0.1274,-0.30224 0.1914,-0.41602 l 0.0957,-0.17968 1.70507,-2.70704 0.41016,3.0586 h -0.004 c 0.0142,0.0782 -0.003,0.17067 -0.0527,0.27734 -0.0498,0.0996 -0.15215,0.14844 -0.30859,0.14844 h -0.15039 v 0.10742 h 0.58789 0.0527 1.2793 0.29883 0.74609 v -0.10742 h -0.0742 -0.0742 c -0.16355,0 -0.31215,-0.0489 -0.44726,-0.14844 -0.128,-0.0995 -0.21054,-0.24284 -0.2461,-0.42773 h -0.002 l -0.83984,-5.85547 h -0.0977 l -2.83008,4.51172 -3.01367,-4.51172 z m 7.97852,0.13867 v 0.10742 h 0.0644 0.0645 c 0.17067,0 0.31466,0.0535 0.43555,0.16016 0.12089,0.10667 0.18164,0.24074 0.18164,0.4043 v 5.05664 c 0,0.15644 -0.0608,0.29051 -0.18164,0.40429 -0.12089,0.10667 -0.26222,0.16016 -0.42578,0.16016 h -0.0742 -0.0644 v 0.10742 h 0.74609 0.0332 1.48243 0.0215 0.74609 v -0.10742 h -0.0742 -0.0527 c -0.17067,0 -0.31661,-0.0535 -0.4375,-0.16016 -0.11378,-0.11378 -0.17453,-0.24785 -0.18164,-0.40429 v -5.05664 c 0.007,-0.16356 0.0679,-0.29763 0.18164,-0.4043 0.12089,-0.10667 0.26683,-0.16016 0.4375,-0.16016 h 0.0625 0.0547 l 0.01,-0.10742 h -0.74609 -0.0215 -1.48243 -0.0332 z m 34.85937,0 v 0.10742 h 0.0527 0.0742 c 0.15644,0 0.29247,0.0535 0.40625,0.16016 0.11377,0.10667 0.17257,0.24074 0.17968,0.4043 v 5.05664 c -0.007,0.15644 -0.0659,0.29051 -0.17968,0.40429 -0.10667,0.10667 -0.23809,0.16016 -0.39454,0.16016 h -0.0762 -0.0625 v 0.10742 h 0.71289 0.0762 1.43946 0.0215 0.92774 1.8125 0.0332 l 0.41602,-1.96289 h -0.10743 c -0.0924,0.31289 -0.22386,0.5876 -0.39453,0.82227 -0.17066,0.22755 -0.37736,0.4052 -0.61914,0.5332 -0.23467,0.12089 -0.50477,0.17969 -0.81054,0.17969 h -1.25782 v -5.30078 c 0.007,-0.16356 0.0679,-0.29763 0.18164,-0.4043 0.11378,-0.10667 0.24786,-0.16016 0.4043,-0.16016 h 0.0547 0.0742 v -0.10742 h -0.71485 -0.0215 -1.49414 -0.0215 z m 5.75391,0 v 0.10742 h 0.0547 0.0742 c 0.15644,0 0.29051,0.0535 0.40429,0.16016 0.11378,0.10667 0.17453,0.24074 0.18164,0.4043 v 5.05664 c -0.007,0.15644 -0.0679,0.29051 -0.18164,0.40429 -0.10667,0.10667 -0.23808,0.16016 -0.39453,0.16016 h -0.0742 -0.0644 v 0.10742 h 0.71484 0.0742 1.44141 0.0215 0.92774 1.8125 0.0332 l 0.41602,-1.96289 h -0.10743 c -0.0924,0.31289 -0.22386,0.5876 -0.39453,0.82227 -0.17067,0.22755 -0.37736,0.4052 -0.61914,0.5332 -0.23467,0.12089 -0.50477,0.17969 -0.81055,0.17969 h -1.25781 v -5.30078 c 0.007,-0.16356 0.0659,-0.29763 0.17969,-0.4043 0.11378,-0.10667 0.2498,-0.16016 0.40625,-0.16016 h 0.0527 0.0762 v -0.10742 h -0.71485 -0.0215 -1.49414 -0.0215 z m -65.80664,0.27734 c 0.43378,0 0.8089,0.12151 1.1289,0.36329 0.32712,0.23466 0.57738,0.57278 0.74805,1.01367 0.17778,0.43378 0.26563,0.95219 0.26563,1.55664 0,0.59733 -0.0879,1.11309 -0.26563,1.54687 -0.17067,0.43378 -0.42093,0.7719 -0.74805,1.01368 -0.32,0.23466 -0.69512,0.35156 -1.1289,0.35156 -0.42667,0 -0.80109,-0.1169 -1.1211,-0.35156 -0.32,-0.24178 -0.56831,-0.5799 -0.74609,-1.01368 -0.17778,-0.43378 -0.26758,-0.94954 -0.26758,-1.54687 0,-0.60445 0.0898,-1.12286 0.26758,-1.55664 0.17778,-0.44089 0.42609,-0.77901 0.74609,-1.01367 0.32001,-0.24178 0.69443,-0.36329 1.1211,-0.36329 z m 55.77344,1.81055 0.93945,2.2207 h -1.89649 z"
       transform="matrix(0.26434069,0.01132874,-0.01132874,0.26434069,-17.355823,-10.801614)" />
    <text
       xml:space="preserve"
       style="font-style:normal;font-variant:normal;font-weight:bold;font-stretch:normal;font-size:2.82223px;line-height:0;font-family:Cinzel;-inkscape-font-specification:'Cinzel Bold';writing-mode:lr-tb;direction:ltr;fill:#000000;fill-opacity:1;stroke:none;stroke-width:0.529167;stroke-opacity:1;paint-order:stroke fill markers"
       x="159.83511"
       y="70.181755"
       id="text3570"
       transform="rotate(2.4539999)"><tspan
         id="tspan3570"
         x="159.83511"
         y="70.181755"
         style="stroke-width:0.529167">Del Norte Hall</tspan></text>
    <text
       xml:space="preserve"
       style="font-style:normal;font-variant:normal;font-weight:bold;font-stretch:normal;font-size:2.82223px;line-height:0;font-family:Cinzel;-inkscape-font-specification:'Cinzel Bold';writing-mode:lr-tb;direction:ltr;fill:#000000;fill-opacity:1;stroke:none;stroke-width:0.529167;stroke-opacity:1;paint-order:stroke fill markers"
       x="79.563232"
       y="49.553226"
       id="text3571"
       transform="rotate(2.4539999)"><tspan
         x="79.563232"
         y="49.553226"
         id="tspan3575"
         style="stroke-width:0.529167">Lassen Hall</tspan></text>
    <text
       xml:space="preserve"
       style="font-style:normal;font-variant:normal;font-weight:bold;font-stretch:normal;font-size:2.82223px;line-height:0;font-family:Cinzel;-inkscape-font-specification:'Cinzel Bold';writing-mode:lr-tb;direction:ltr;fill:#000000;fill-opacity:1;stroke:none;stroke-width:0.529167;stroke-opacity:1;paint-order:stroke fill markers"
       x="141.67305"
       y="51.347012"
       id="text3576"
       transform="rotate(2.4539999)"><tspan
         id="tspan3576"
         x="141.67305"
         y="51.347012"
         style="stroke-width:0.529167">Riverfront</tspan></text>
    <text
       xml:space="preserve"
       style="font-style:normal;font-variant:normal;font-weight:bold;font-stretch:normal;font-size:2.82223px;line-height:0;font-family:Cinzel;-inkscape-font-specification:'Cinzel Bold';writing-mode:lr-tb;direction:ltr;fill:#000000;fill-opacity:1;stroke:none;stroke-width:0.529167;stroke-opacity:1;paint-order:stroke fill markers"
       x="32.252132"
       y="143.72696"
       id="text3577"
       transform="rotate(2.4539999)"><tspan
         id="tspan3577"
         x="32.252132"
         y="143.72696"
         style="stroke-width:0.529167">Capistrano Hall</tspan></text>
    <text
       xml:space="preserve"
       style="font-style:normal;font-variant:normal;font-weight:bold;font-stretch:normal;font-size:2.82223px;line-height:0;font-family:Cinzel;-inkscape-font-specification:'Cinzel Bold';writing-mode:lr-tb;direction:ltr;fill:#000000;fill-opacity:1;stroke:none;stroke-width:0.529167;stroke-opacity:1;paint-order:stroke fill markers"
       x="147.72707"
       y="183.19023"
       id="text3578"
       transform="rotate(2.4539999)"><tspan
         id="tspan3578"
         x="147.72707"
         y="183.19023"
         style="stroke-width:0.529167">Tschannen Science Complex</tspan></text>
    <text
       xml:space="preserve"
       style="font-style:normal;font-variant:normal;font-weight:bold;font-stretch:normal;font-size:2.82223px;line-height:0;font-family:Cinzel;-inkscape-font-specification:'Cinzel Bold';writing-mode:lr-tb;direction:ltr;fill:#000000;fill-opacity:1;stroke:none;stroke-width:0.529167;stroke-opacity:1;paint-order:stroke fill markers"
       x="87.793472"
       y="93.959167"
       id="text3579"
       transform="rotate(14.454)"><tspan
         x="87.793472"
         y="93.959167"
         id="tspan3580"
         style="stroke-width:0.529167">Eureka Hall</tspan></text>
    <text
       xml:space="preserve"
       style="font-style:normal;font-variant:normal;font-weight:bold;font-stretch:normal;font-size:2.82223px;line-height:0;font-family:Cinzel;-inkscape-font-specification:'Cinzel Bold';writing-mode:lr-tb;direction:ltr;fill:#000000;fill-opacity:1;stroke:none;stroke-width:0.529167;stroke-opacity:1;paint-order:stroke fill markers"
       x="89.614029"
       y="66.099632"
       id="text3581"
       transform="rotate(14.454)"><tspan
         id="tspan3581"
         x="89.614029"
         y="66.099632"
         style="stroke-width:0.529167">Mariposa Hall</tspan></text>
    <text
       xml:space="preserve"
       style="font-style:normal;font-variant:normal;font-weight:bold;font-stretch:normal;font-size:2.82223px;line-height:0;font-family:Cinzel;-inkscape-font-specification:'Cinzel Bold';writing-mode:lr-tb;direction:ltr;fill:#000000;fill-opacity:1;stroke:none;stroke-width:0.529167;stroke-opacity:1;paint-order:stroke fill markers"
       x="89.163788"
       y="56.155281"
       id="text3582"
       transform="rotate(14.454)"><tspan
         id="tspan3582"
         x="89.163788"
         y="56.155281"
         style="stroke-width:0.529167">Kadema Hall</tspan></text>
    <text
       xml:space="preserve"
       style="font-style:normal;font-variant:normal;font-weight:bold;font-stretch:normal;font-size:2.82223px;line-height:0;font-family:Cinzel;-inkscape-font-specification:'Cinzel Bold';writing-mode:lr-tb;direction:ltr;fill:#000000;fill-opacity:1;stroke:none;stroke-width:0.529167;stroke-opacity:1;paint-order:stroke fill markers"
       x="115.56872"
       y="46.695255"
       id="text3583"
       transform="rotate(14.866)"><tspan
         id="tspan3583"
         x="115.56872"
         y="46.695255"
         style="stroke-width:0.529167">Douglass Hall</tspan></text>
    <text
       xml:space="preserve"
       style="font-style:normal;font-variant:normal;font-weight:bold;font-stretch:normal;font-size:2.82223px;line-height:0;font-family:Cinzel;-inkscape-font-specification:'Cinzel Bold';writing-mode:lr-tb;direction:ltr;fill:#000000;fill-opacity:1;stroke:none;stroke-width:0.529167;stroke-opacity:1;paint-order:stroke fill markers"
       x="117.43858"
       y="56.680389"
       id="text3584"
       transform="rotate(17.454001)"><tspan
         id="tspan3584"
         x="117.43858"
         y="56.680389"
         style="stroke-width:0.529167">Calaveras Hall</tspan></text>
    <text
       xml:space="preserve"
       style="font-style:normal;font-variant:normal;font-weight:bold;font-stretch:normal;font-size:2.82223px;line-height:0;font-family:Cinzel;-inkscape-font-specification:'Cinzel Bold';writing-mode:lr-tb;direction:ltr;fill:#000000;fill-opacity:1;stroke:none;stroke-width:0.529167;stroke-opacity:1;paint-order:stroke fill markers"
       x="116.78668"
       y="77.136009"
       id="text3585"
       transform="rotate(14.454)"><tspan
         id="tspan3585"
         x="116.78668"
         y="77.136009"
         style="stroke-width:0.529167">Alpine Hall</tspan></text>
    <text
       xml:space="preserve"
       style="font-style:normal;font-variant:normal;font-weight:bold;font-stretch:normal;font-size:2.82223px;line-height:0;font-family:Cinzel;-inkscape-font-specification:'Cinzel Bold';writing-mode:lr-tb;direction:ltr;fill:#000000;fill-opacity:1;stroke:none;stroke-width:0.529167;stroke-opacity:1;paint-order:stroke fill markers"
       x="113.61125"
       y="90.411552"
       id="text3586"
       transform="rotate(14.454)"><tspan
         id="tspan3586"
         x="113.61125"
         y="90.411552"
         style="stroke-width:0.529167">Brighton Hall</tspan></text>
    <text
       xml:space="preserve"
       style="font-style:normal;font-variant:normal;font-weight:bold;font-stretch:normal;font-size:2.82223px;line-height:0;font-family:Cinzel;-inkscape-font-specification:'Cinzel Bold';writing-mode:lr-tb;direction:ltr;fill:#000000;fill-opacity:1;stroke:none;stroke-width:0.529167;stroke-opacity:1;paint-order:stroke fill markers"
       x="123.95941"
       y="97.088539"
       id="text3587"
       transform="rotate(2.4539999)"><tspan
         id="tspan3587"
         x="123.95941"
         y="97.088539"
         style="stroke-width:0.529167">placer Hall</tspan></text>
    <text
       xml:space="preserve"
       style="font-style:normal;font-variant:normal;font-weight:bold;font-stretch:normal;font-size:2.82223px;line-height:0;font-family:Cinzel;-inkscape-font-specification:'Cinzel Bold';writing-mode:lr-tb;direction:ltr;fill:#000000;fill-opacity:1;stroke:none;stroke-width:0.529167;stroke-opacity:1;paint-order:stroke fill markers"
       x="144.1395"
       y="112.78416"
       id="text3588"
       transform="rotate(2.4539999)"><tspan
         id="tspan3588"
         x="144.1395"
         y="112.78416"
         style="stroke-width:0.529167">Sequoia Hall</tspan></text>
    <text
       xml:space="preserve"
       style="font-style:normal;font-variant:normal;font-weight:bold;font-stretch:normal;font-size:2.82223px;line-height:0;font-family:Cinzel;-inkscape-font-specification:'Cinzel Bold';writing-mode:lr-tb;direction:ltr;fill:#000000;fill-opacity:1;stroke:none;stroke-width:0.529167;stroke-opacity:1;paint-order:stroke fill markers"
       x="140.40855"
       y="98.693001"
       id="text3589"
       transform="rotate(14.454)"><tspan
         id="tspan3589"
         x="140.40855"
         y="98.693001"
         style="stroke-width:0.529167">Humboldt Hall</tspan></text>
    <text
       xml:space="preserve"
       style="font-style:normal;font-variant:normal;font-weight:bold;font-stretch:normal;font-size:2.82223px;line-height:0;font-family:Cinzel;-inkscape-font-specification:'Cinzel Bold';writing-mode:lr-tb;direction:ltr;fill:#000000;fill-opacity:1;stroke:none;stroke-width:0.529167;stroke-opacity:1;paint-order:stroke fill markers"
       x="138.50371"
       y="131.19604"
       id="text3590"
       transform="rotate(14.454)"><tspan
         id="tspan3590"
         x="138.50371"
         y="131.19604"
         style="stroke-width:0.529167">Santa Clara Hall</tspan></text>
    <text
       xml:space="preserve"
       style="font-style:normal;font-variant:normal;font-weight:bold;font-stretch:normal;font-size:2.82223px;line-height:0;font-family:Cinzel;-inkscape-font-specification:'Cinzel Bold';writing-mode:lr-tb;direction:ltr;fill:#000000;fill-opacity:1;stroke:none;stroke-width:0.529167;stroke-opacity:1;paint-order:stroke fill markers"
       x="140.3683"
       y="149.21011"
       id="text3591"
       transform="rotate(2.4539999)"><tspan
         id="tspan3591"
         x="140.3683"
         y="149.21011"
         style="stroke-width:0.529167">Riverside Hall</tspan></text>
    <text
       xml:space="preserve"
       style="font-style:normal;font-variant:normal;font-weight:bold;font-stretch:normal;font-size:2.82223px;line-height:0;font-family:Cinzel;-inkscape-font-specification:'Cinzel Bold';writing-mode:lr-tb;direction:ltr;fill:#000000;fill-opacity:1;stroke:none;stroke-width:0.529167;stroke-opacity:1;paint-order:stroke fill markers"
       x="36.288151"
       y="72.872437"
       id="text3592"
       transform="rotate(2.4539999)"><tspan
         id="tspan3592"
         x="36.288151"
         y="72.872437"
         style="stroke-width:0.529167">Solano Hall</tspan></text>
    <text
       xml:space="preserve"
       style="font-style:normal;font-variant:normal;font-weight:bold;font-stretch:normal;font-size:2.82223px;line-height:0;font-family:Cinzel;-inkscape-font-specification:'Cinzel Bold';writing-mode:lr-tb;direction:ltr;fill:#000000;fill-opacity:1;stroke:none;stroke-width:0.529167;stroke-opacity:1;paint-order:stroke fill markers"
       x="136.96436"
       y="93.052521"
       id="text3593"
       transform="rotate(2.4539999)"><tspan
         id="tspan3593"
         x="136.96436"
         y="93.052521"
         style="stroke-width:0.529167">Mendocino Hall</tspan></text>
  </g>
</svg>
