<?xml version="1.0" encoding="UTF-8" standalone="no"?>
<!-- Created with Inkscape (http://www.inkscape.org/) -->

<svg
   version="1.1"
   id="svg1"
   width="558.52112"
   height="538.99213"
   viewBox="0 0 558.52112 538.99213"
   xmlns="http://www.w3.org/2000/svg"
   xmlns:svg="http://www.w3.org/2000/svg">
  <defs
     id="defs1" />
  <g
     id="g1"
     transform="translate(-248.32693,-51.646542)">
    <path
       id="path59"
       d="m 0,0 h 3.663 v 0.912 l 6.098,6.099 h 6.368 l 1.048,1.049 v 6.369 l 6.014,6.015 h 7.663 l 13.02,13.02 h 0.012 L 29.204,48.276 H 23.799 L 20.108,44.585 15.875,48.818 -24.287,8.656 -7.815,-7.815 Z"
       style="fill:none;fill-opacity:1;fill-rule:nonzero;stroke:#004e4c;stroke-width:0.324;stroke-linecap:butt;stroke-linejoin:miter;stroke-miterlimit:10;stroke-dasharray:none;stroke-opacity:1"
       transform="matrix(1.3333333,0,0,-1.3333333,551.076,272.92747)" />
    <path
       id="path60"
       d="M 0,0 -9.681,-0.02 -12.184,-2.524 -24.398,9.69"
       style="fill:none;stroke:#004e4c;stroke-width:0.324;stroke-linecap:butt;stroke-linejoin:miter;stroke-miterlimit:10;stroke-dasharray:none;stroke-opacity:1"
       transform="matrix(1.3333333,0,0,-1.3333333,665.01253,224.62467)" />
    <path
       id="path61"
       d="m 0,0 9.524,9.614 9.68,0.02 15.74,-15.739 v -27.489 l -17.463,-0.041 -2.483,2.483 h -15.06 z"
       style="fill:none;fill-opacity:1;fill-rule:nonzero;stroke:#004e4c;stroke-width:0.324;stroke-linecap:butt;stroke-linejoin:miter;stroke-miterlimit:10;stroke-dasharray:none;stroke-opacity:1"
       transform="matrix(1.3333333,0,0,-1.3333333,639.40667,237.46987)"
       room="fireplace_lounge_2050" />
    <path
       id="path62"
       d="m 0,0 -41.709,-44.314 v -74.57 h 40.705 v 44.232 h 18 v 9.335 h -6.657 v 11.994 h 6.657 v 33.445 h 4.767 v 4.953 l -2.442,2.442 -3.419,-3.419 z"
       style="fill:none;fill-opacity:1;fill-rule:nonzero;stroke:#004e4c;stroke-width:0.324;stroke-linecap:butt;stroke-linejoin:miter;stroke-miterlimit:10;stroke-dasharray:none;stroke-opacity:1"
       transform="matrix(1.3333333,0,0,-1.3333333,682.5608,428.43693)" />
    <path
       id="path63"
       d="m 530.563,358.757 h 9.643 v -14.111 h -9.643 z"
       style="fill:none;fill-opacity:1;fill-rule:nonzero;stroke:#004e4c;stroke-width:0.324;stroke-linecap:butt;stroke-linejoin:miter;stroke-miterlimit:10;stroke-dasharray:none;stroke-opacity:1"
       transform="matrix(1.3333333,0,0,-1.3333333,0,816)" />
    <path
       id="path64"
       d="M 0,0 H 2.84"
       style="fill:none;fill-opacity:1;fill-rule:nonzero;stroke:#004e4c;stroke-width:0.324;stroke-linecap:butt;stroke-linejoin:miter;stroke-miterlimit:10;stroke-dasharray:none;stroke-opacity:1"
       transform="matrix(1.3333333,0,0,-1.3333333,720.27467,356.4712)" />
    <path
       id="path65"
       d="M 0,0 H 12.266 V 2.714 H 23.12 V 0 h 7.164 v -6.079 h 2.219 v -14.11 h -2.219 v -6.079 H 23.12 v -2.714 H 12.266 v 2.714 H 0 Z"
       style="fill:none;fill-opacity:1;fill-rule:nonzero;stroke:#004e4c;stroke-width:0.324;stroke-linecap:butt;stroke-linejoin:miter;stroke-miterlimit:10;stroke-dasharray:none;stroke-opacity:1"
       transform="matrix(1.3333333,0,0,-1.3333333,677.02493,329.552)" />
    <path
       id="path66"
       d="m 0,0 h -12.211 l -62.143,-62.142 -8.358,8.358 -8.086,-8.087 v -9.118 l 15.739,-15.739 v -23.771 h 6.404 L 0,-41.69 Z"
       style="fill:none;fill-opacity:1;fill-rule:nonzero;stroke:#004e4c;stroke-width:0.324;stroke-linecap:butt;stroke-linejoin:miter;stroke-miterlimit:10;stroke-dasharray:none;stroke-opacity:1"
       transform="matrix(1.3333333,0,0,-1.3333333,786.07693,129.97293)" />
    <path
       id="path67"
       d="M 0,0 -1.682,-1.694 V -31.061 H 13.84 V 0.543 H 0 Z"
       style="fill:#474747;fill-opacity:1;fill-rule:nonzero;stroke:#004e4c;stroke-width:0.324;stroke-linecap:butt;stroke-linejoin:miter;stroke-miterlimit:10;stroke-dasharray:none;stroke-opacity:1"
       transform="matrix(1.3333333,0,0,-1.3333333,786.07693,185.52507)" />
    <path
       id="path89"
       d="m 558.704,299.926 h 42.17 V 199.874 h -42.17 z"
       style="fill:none;fill-opacity:1;fill-rule:nonzero;stroke:#004e4c;stroke-width:0.324;stroke-linecap:butt;stroke-linejoin:miter;stroke-miterlimit:10;stroke-dasharray:none;stroke-opacity:1"
       transform="matrix(1.3333333,0,0,-1.3333333,0,816)"
       room="cottonwood_2290" />
    <path
       id="path90"
       d="M 0,0 H -42.17"
       style="fill:none;stroke:#004e4c;stroke-width:0.324;stroke-linecap:butt;stroke-linejoin:miter;stroke-miterlimit:10;stroke-dasharray:none;stroke-opacity:1"
       transform="matrix(1.3333333,0,0,-1.3333333,801.1648,451.5932)" />
    <path
       id="path91"
       d="M 0,0 H -42.17"
       style="fill:none;stroke:#004e4c;stroke-width:0.324;stroke-linecap:butt;stroke-linejoin:miter;stroke-miterlimit:10;stroke-dasharray:none;stroke-opacity:1"
       transform="matrix(1.3333333,0,0,-1.3333333,801.1648,488.93293)" />
    <path
       id="path92"
       d="m 555.041,299.926 h 45.833 v 11.246 h -45.833 z"
       style="fill:none;fill-opacity:1;fill-rule:nonzero;stroke:#004e4c;stroke-width:0.324;stroke-linecap:butt;stroke-linejoin:miter;stroke-miterlimit:10;stroke-dasharray:none;stroke-opacity:1"
       transform="matrix(1.3333333,0,0,-1.3333333,0,816)" />
    <path
       id="path93"
       d="m 0,0 h -30.513 v -12.456 h 17.815 V -25.511 H 0 Z"
       style="fill:#474747;fill-opacity:1;fill-rule:nonzero;stroke:#004e4c;stroke-width:0.324;stroke-linecap:butt;stroke-linejoin:miter;stroke-miterlimit:10;stroke-dasharray:none;stroke-opacity:1"
       transform="matrix(1.3333333,0,0,-1.3333333,801.1368,367.0364)" />
    <path
       id="path115"
       d="m 0,0 v 0 22.387 1.35 h -42.17 v -27.4 H 0 Z"
       style="fill:none;fill-opacity:1;fill-rule:nonzero;stroke:#004e4c;stroke-width:0.324;stroke-linecap:butt;stroke-linejoin:miter;stroke-miterlimit:10;stroke-dasharray:none;stroke-opacity:1"
       transform="matrix(1.3333333,0,0,-1.3333333,801.1648,362.0432)" />
    <path
       id="path116"
       d="M 0,0 5.283,-5.283 8.54,-2.026 V 10.945 H 4.035 v 2.713 H 1.322 L 1.382,1.387 Z"
       style="fill:none;fill-opacity:1;fill-rule:nonzero;stroke:none"
       transform="matrix(1.3333333,0,0,-1.3333333,687.9988,382.7872)" />
    <path
       id="path117"
       d="m 0,0 v 0 22.18 4.488 h -18.852 v 9.778 H -42.17 V -4.465 H 0 Z"
       style="fill:none;fill-opacity:1;fill-rule:nonzero;stroke:#004e4c;stroke-width:0.324;stroke-linecap:butt;stroke-linejoin:miter;stroke-miterlimit:10;stroke-dasharray:none;stroke-opacity:1"
       transform="matrix(1.3333333,0,0,-1.3333333,801.1648,324.44053)" />
    <path
       id="path118"
       d="m 0,0 v -9.76 h 23.318 v -9.778 H 42.17 v 1.337 22.18 6.11 12.99 3.84 H 15.997 L -3.263,7.659 V 5.984"
       style="fill:none;fill-opacity:1;fill-rule:nonzero;stroke:#004e4c;stroke-width:0.324;stroke-linecap:butt;stroke-linejoin:miter;stroke-miterlimit:10;stroke-dasharray:none;stroke-opacity:1"
       transform="matrix(1.3333333,0,0,-1.3333333,744.93827,262.83267)" />
    <path
       id="path119"
       d="M 0,0 H -3.541 V -15.834"
       style="fill:none;stroke:#004e4c;stroke-width:0.324;stroke-linecap:butt;stroke-linejoin:miter;stroke-miterlimit:10;stroke-dasharray:none;stroke-opacity:1"
       transform="matrix(1.3333333,0,0,-1.3333333,744.93827,366.92773)" />
    <path
       id="path120"
       d="M 0,0 V 1.332"
       style="fill:none;stroke:#004e4c;stroke-width:0.324;stroke-linecap:butt;stroke-linejoin:miter;stroke-miterlimit:10;stroke-dasharray:none;stroke-opacity:1"
       transform="matrix(1.3333333,0,0,-1.3333333,740.05413,401.1048)" />
    <path
       id="path121"
       d="m 521.838,201.746 h 10.734 v -13.27 h -10.734 z"
       style="fill:#474747;fill-opacity:1;fill-rule:nonzero;stroke:#004e4c;stroke-width:0.324;stroke-linecap:butt;stroke-linejoin:miter;stroke-miterlimit:10;stroke-dasharray:none;stroke-opacity:1"
       transform="matrix(1.3333333,0,0,-1.3333333,0,816)" />
    <path
       id="path143"
       d="m 521.838,200.118 h -10.867 v -13.27 h 10.867 z"
       style="fill:#474747;fill-opacity:1;fill-rule:nonzero;stroke:#004e4c;stroke-width:0.324;stroke-linecap:butt;stroke-linejoin:miter;stroke-miterlimit:10;stroke-dasharray:none;stroke-opacity:1"
       transform="matrix(1.3333333,0,0,-1.3333333,0,816)" />
    <path
       id="path165"
       d="M 0,0 H 4.767 V 4.953 L 2.325,7.396 -1.095,3.976 -16.996,19.878 -58.705,-24.435 V -99.006 H -18 v -1.981 h 9.85 l 0.624,-0.624 h 0.977 v 6.187 H 3.654 v 24.423 h 3.745 v -2.443 h 17.259 v 2.524 h 5.129"
       style="fill:none;stroke:#004e4c;stroke-width:0.324;stroke-linecap:butt;stroke-linejoin:miter;stroke-miterlimit:10;stroke-dasharray:none;stroke-opacity:1"
       transform="matrix(1.3333333,0,0,-1.3333333,705.22267,454.94133)"
       room="north_lounge_2201" />
    <path
       id="path166"
       d="m 0,0 v 0 -1.9 -7.652 -1.9 -7.164 H -6.657 V -30.61 H 0 v -9.335 h 3.654 v -14.273"
       style="fill:none;stroke:#004e4c;stroke-width:0.324;stroke-linecap:butt;stroke-linejoin:miter;stroke-miterlimit:10;stroke-dasharray:none;stroke-opacity:1"
       transform="matrix(1.3333333,0,0,-1.3333333,705.22267,474.71347)" />
    <path
       id="path167"
       d="M 0,0 -11.642,-11.642 1.343,-24.626 v -8.1 l 8.813,-8.814 12.014,12.748 2.321,-2.32 3.31,3.311 z"
       style="fill:none;fill-opacity:1;fill-rule:nonzero;stroke:#004e4c;stroke-width:0.324;stroke-linecap:butt;stroke-linejoin:miter;stroke-miterlimit:10;stroke-dasharray:none;stroke-opacity:1"
       transform="matrix(1.3333333,0,0,-1.3333333,653.00027,390.048)" />
    <path
       id="path168"
       d="M 0,0 -7.503,7.503 H -17.91 l -6.886,-6.886 v -9.735 l 7.554,-7.554 h 9.454 l 7.737,7.737 z"
       style="fill:none;fill-opacity:1;fill-rule:nonzero;stroke:#004e4c;stroke-width:0.324;stroke-linecap:butt;stroke-linejoin:miter;stroke-miterlimit:10;stroke-dasharray:none;stroke-opacity:1"
       transform="matrix(1.3333333,0,0,-1.3333333,626.08093,405.57)"
       room="computer_lounge_2060" />
    <path
       id="path169"
       d="M 0,0 7.557,0.054 V 8.155 L -5.427,21.139 h -8.548 v -7.164 -1.77 c 0,0 -7.807,-7.756 -7.788,-7.738 h 5.753 l 5.771,5.772 z"
       style="fill:none;fill-opacity:1;fill-rule:nonzero;stroke:#004e4c;stroke-width:0.324;stroke-linecap:butt;stroke-linejoin:miter;stroke-miterlimit:10;stroke-dasharray:none;stroke-opacity:1"
       transform="matrix(1.3333333,0,0,-1.3333333,644.71453,433.7556)" />
    <path
       id="path170"
       d="m 0,0 h -3.012 l -10.285,-10.285 6.411,-6.336 v 9.735 z"
       style="fill:none;fill-opacity:1;fill-rule:nonzero;stroke:#004e4c;stroke-width:0.324;stroke-linecap:butt;stroke-linejoin:miter;stroke-miterlimit:10;stroke-dasharray:none;stroke-opacity:1"
       transform="matrix(1.3333333,0,0,-1.3333333,602.20093,395.56573)" />
    <path
       id="path171"
       d="m 0,0 -20.644,20.644 1.649,1.649 v 5.562 L -31.22,40.08 h -4.953 l -6.926,-6.926 v -4.322 l -3.135,-3.134 35.949,-35.983 z"
       style="fill:none;fill-opacity:1;fill-rule:nonzero;stroke:#004e4c;stroke-width:0.324;stroke-linecap:butt;stroke-linejoin:miter;stroke-miterlimit:10;stroke-dasharray:none;stroke-opacity:1"
       transform="matrix(1.3333333,0,0,-1.3333333,598.18467,395.56573)" />
    <path
       id="path172"
       d="m 0,0 -38.136,-38.137 c -22.629,21.5 -34.657,48.078 -33.673,80.89"
       style="fill:none;stroke:#004e4c;stroke-width:0.324;stroke-linecap:butt;stroke-linejoin:miter;stroke-miterlimit:10;stroke-dasharray:none;stroke-opacity:1"
       transform="matrix(1.3333333,0,0,-1.3333333,536.5388,361.3012)" />
    <path
       id="path173"
       d="M 0,0 -23.615,23.615 -41.77,5.461 v -8.019"
       style="fill:none;stroke:#004e4c;stroke-width:0.324;stroke-linecap:butt;stroke-linejoin:miter;stroke-miterlimit:10;stroke-dasharray:none;stroke-opacity:1"
       transform="matrix(1.3333333,0,0,-1.3333333,540.71893,351.36053)" />
    <path
       id="path174"
       d="m 0,0 v 12.13 l 21.329,21.329 -2.035,2.035 3.216,3.216 -18.643,18.643 -19.05,-19.05 h -41.152 v 15.671 h -52.102 v 27.109 h -19.538 l -39.836,39.837 26.566,26.566 4.559,-4.559 12.836,12.836 -8.25,8.249 c 5.208,13.341 13.957,22.137 25.834,26.92 v 23.011 h 23.229 l 7.381,-7.381 20.623,20.624 6.513,-6.513 L -69.686,199.507 8.141,121.679 -5.21,108.328 7.055,96.063 4.885,93.892 21.926,76.85 l 3.039,3.039 9.77,-9.769 40.161,40.162 4.234,-4.233 3.69,3.69 h 5.427 l 19.539,19.539 h 10.203 l 3.799,-3.799 12.157,12.157 h 7.273 v -7.056 h 17.584 l 12.917,-12.917"
       style="fill:none;stroke:#004e4c;stroke-width:0.324;stroke-linecap:butt;stroke-linejoin:miter;stroke-miterlimit:10;stroke-dasharray:none;stroke-opacity:1"
       transform="matrix(1.3333333,0,0,-1.3333333,472.38053,354.8792)" />
    <path
       id="path175"
       d="m 0,0 -16.363,16.363 26.783,26.784 2.904,-2.822 7.557,0.054 8.814,-8.813 z"
       style="fill:none;fill-opacity:1;fill-rule:nonzero;stroke:#004e4c;stroke-width:0.324;stroke-linecap:butt;stroke-linejoin:miter;stroke-miterlimit:10;stroke-dasharray:none;stroke-opacity:1"
       transform="matrix(1.3333333,0,0,-1.3333333,626.9492,487.52187)" />
    <path
       id="path176"
       d="m 0,0 v 8.711 l -7.164,7.164 -8.331,8.331 18.046,18.045 -6.16,6.16 L -22.143,29.877 -84.91,93.512 -111.476,66.945 -71.64,27.109 h 19.538 V 0 Z"
       style="fill:none;fill-opacity:1;fill-rule:nonzero;stroke:#004e4c;stroke-width:0.324;stroke-linecap:butt;stroke-linejoin:miter;stroke-miterlimit:10;stroke-dasharray:none;stroke-opacity:1"
       transform="matrix(1.3333333,0,0,-1.3333333,397.26707,282.9136)" />
    <path
       id="path177"
       d="m 0,0 -43.79,43.79 28.296,28.296 43.79,-43.79 z"
       style="fill:none;fill-opacity:1;fill-rule:nonzero;stroke:#004e4c;stroke-width:0.324;stroke-linecap:butt;stroke-linejoin:miter;stroke-miterlimit:10;stroke-dasharray:none;stroke-opacity:1"
       transform="matrix(1.3333333,0,0,-1.3333333,367.72507,243.00907)"
       room="orchard_2011" />
    <path
       id="path178"
       d="M 0,0 11.253,-11.253 22.027,-0.48 -6.187,27.733 -34.023,-0.103 l 16.96,-16.96 z"
       style="fill:none;fill-opacity:1;fill-rule:nonzero;stroke:#004e4c;stroke-width:0.324;stroke-linecap:butt;stroke-linejoin:miter;stroke-miterlimit:10;stroke-dasharray:none;stroke-opacity:1"
       transform="matrix(1.3333333,0,0,-1.3333333,421.9632,250.5188)" />
    <path
       id="path179"
       d="M 0,0 -28.29,-28.29"
       style="fill:none;stroke:#004e4c;stroke-width:0.324;stroke-linecap:butt;stroke-linejoin:miter;stroke-miterlimit:10;stroke-dasharray:none;stroke-opacity:1"
       transform="matrix(1.3333333,0,0,-1.3333333,367.616,167.47547)" />
    <path
       id="path180"
       d="M 0,0 -28.29,-28.29"
       style="fill:none;stroke:#004e4c;stroke-width:0.324;stroke-linecap:butt;stroke-linejoin:miter;stroke-miterlimit:10;stroke-dasharray:none;stroke-opacity:1"
       transform="matrix(1.3333333,0,0,-1.3333333,386.17733,186.0368)" />
    <path
       id="path181"
       d="M 0,0 -2.442,2.442 C 0.5,13.967 8.174,21.843 20.922,25.807 l 9.932,-9.932"
       style="fill:none;stroke:#004e4c;stroke-width:0.324;stroke-linecap:butt;stroke-linejoin:miter;stroke-miterlimit:10;stroke-dasharray:none;stroke-opacity:1"
       transform="matrix(1.3333333,0,0,-1.3333333,313.03573,148.42573)" />
    <path
       id="path182"
       d="m 0,0 -25.182,-25.182 -20.127,20.126 25.183,25.182 z"
       style="fill:none;fill-opacity:1;fill-rule:nonzero;stroke:#004e4c;stroke-width:0.324;stroke-linecap:butt;stroke-linejoin:miter;stroke-miterlimit:10;stroke-dasharray:none;stroke-opacity:1"
       transform="matrix(1.3333333,0,0,-1.3333333,412.87933,122.2568)"
       room="walnut_2013a" />
    <path
       id="path183"
       d="m 0,0 -25.182,-25.182 -20.571,20.57 25.182,25.183 z"
       style="fill:none;fill-opacity:1;fill-rule:nonzero;stroke:#004e4c;stroke-width:0.324;stroke-linecap:butt;stroke-linejoin:miter;stroke-miterlimit:10;stroke-dasharray:none;stroke-opacity:1"
       transform="matrix(1.3333333,0,0,-1.3333333,440.31867,149.69613)"
       room="oak_2013b" />
    <path
       id="path184"
       d="M 0,0 6.784,-6.784"
       style="fill:none;stroke:#004e4c;stroke-width:0.324;stroke-linecap:butt;stroke-linejoin:miter;stroke-miterlimit:10;stroke-dasharray:none;stroke-opacity:1"
       transform="matrix(1.3333333,0,0,-1.3333333,421.93853,183.16427)" />
    <path
       id="path185"
       d="M 0,0 6.174,-6.174"
       style="fill:none;stroke:#004e4c;stroke-width:0.324;stroke-linecap:butt;stroke-linejoin:miter;stroke-miterlimit:10;stroke-dasharray:none;stroke-opacity:1"
       transform="matrix(1.3333333,0,0,-1.3333333,436.68293,197.90867)" />
    <path
       id="path186"
       d="m 466.82049,176.08364 -25.83333,25.83333"
       style="fill:none;stroke:#004e4c;stroke-width:0.432;stroke-linecap:butt;stroke-linejoin:miter;stroke-miterlimit:10;stroke-dasharray:none;stroke-opacity:1" />
    <path
       id="path187"
       d="M 0,0 4.586,-4.586"
       style="fill:none;stroke:#004e4c;stroke-width:0.324;stroke-linecap:butt;stroke-linejoin:miter;stroke-miterlimit:10;stroke-dasharray:none;stroke-opacity:1"
       transform="matrix(1.3333333,0,0,-1.3333333,451.17373,212.39947)" />
    <path
       id="path188"
       d="M 0,0 -12,12 13.145,37.145 39.766,10.579 26.415,-2.772 14.61,-14.577 6.622,-6.589"
       style="fill:none;stroke:#004e4c;stroke-width:0.324;stroke-linecap:butt;stroke-linejoin:miter;stroke-miterlimit:10;stroke-dasharray:none;stroke-opacity:1"
       transform="matrix(1.3333333,0,0,-1.3333333,430.21413,206.7448)" />
    <path
       id="path189"
       d="m 0,0 -5.16,5.16 10.646,10.646 5.16,-5.16 z"
       style="fill:none;fill-opacity:1;fill-rule:nonzero;stroke:#004e4c;stroke-width:0.324;stroke-linecap:butt;stroke-linejoin:miter;stroke-miterlimit:10;stroke-dasharray:none;stroke-opacity:1"
       transform="matrix(1.3333333,0,0,-1.3333333,458.11867,231.46307)" />
    <path
       id="path190"
       d="M 0,0 -17.065,17.065 -8.947,25.183 8.118,8.118 Z"
       style="fill:none;fill-opacity:1;fill-rule:nonzero;stroke:#004e4c;stroke-width:0.324;stroke-linecap:butt;stroke-linejoin:miter;stroke-miterlimit:10;stroke-dasharray:none;stroke-opacity:1"
       transform="matrix(1.3333333,0,0,-1.3333333,490.88693,263.13347)" />
    <path
       id="path191"
       d="M 0,0 2.795,-2.795"
       style="fill:none;stroke:#004e4c;stroke-width:0.324;stroke-linecap:butt;stroke-linejoin:miter;stroke-miterlimit:10;stroke-dasharray:none;stroke-opacity:1"
       transform="matrix(1.3333333,0,0,-1.3333333,540.6556,283.34773)" />
    <path
       id="path192"
       d="m 0,0 -4.35,4.35 8.705,8.706 4.351,-4.35 z"
       style="fill:#474747;fill-opacity:1;fill-rule:nonzero;stroke:#004e4c;stroke-width:0.324;stroke-linecap:butt;stroke-linejoin:miter;stroke-miterlimit:10;stroke-dasharray:none;stroke-opacity:1"
       transform="matrix(1.3333333,0,0,-1.3333333,647.2524,198.24307)" />
    <path
       id="path214"
       d="m 0,0 -6.234,6.234 11.961,11.96 6.234,-6.233 z"
       style="fill:#474747;fill-opacity:1;fill-rule:nonzero;stroke:#004e4c;stroke-width:0.324;stroke-linecap:butt;stroke-linejoin:miter;stroke-miterlimit:10;stroke-dasharray:none;stroke-opacity:1"
       transform="matrix(1.3333333,0,0,-1.3333333,597.1288,334.93373)" />
    <path
       id="path236"
       d="m 0,0 -4.35,4.35 8.827,8.828 4.35,-4.351 z"
       style="fill:#474747;fill-opacity:1;fill-rule:nonzero;stroke:#004e4c;stroke-width:0.324;stroke-linecap:butt;stroke-linejoin:miter;stroke-miterlimit:10;stroke-dasharray:none;stroke-opacity:1"
       transform="matrix(1.3333333,0,0,-1.3333333,641.98573,191.92907)" />
    <path
       id="path258"
       d="M 0,0 V -3.175 L -11.465,-14.64 h -9.756"
       style="fill:#474747;fill-opacity:1;stroke:#004e4c;stroke-width:0.324;stroke-linecap:butt;stroke-linejoin:miter;stroke-miterlimit:10;stroke-dasharray:none;stroke-opacity:1"
       transform="matrix(1.3333333,0,0,-1.3333333,660.6708,180.77227)" />
    <path
       id="path259"
       d="m 0,0 v -9.769 h -14.572 v 4.64 h -9.362 v 7.571 h 3.989 l 2.483,-2.483 z"
       style="fill:none;fill-opacity:1;fill-rule:nonzero;stroke:#004e4c;stroke-width:0.324;stroke-linecap:butt;stroke-linejoin:miter;stroke-miterlimit:10;stroke-dasharray:none;stroke-opacity:1"
       transform="matrix(1.3333333,0,0,-1.3333333,685.998,282.26227)" />
    <path
       id="path260"
       d="M 0,0 V -3.718"
       style="fill:none;fill-opacity:1;fill-rule:nonzero;stroke:#004e4c;stroke-width:0.324;stroke-linecap:butt;stroke-linejoin:miter;stroke-miterlimit:10;stroke-dasharray:none;stroke-opacity:1"
       transform="matrix(1.3333333,0,0,-1.3333333,685.998,277.30533)" />
    <path
       id="path261"
       d="M 0,0 H -11.072"
       style="fill:none;fill-opacity:1;fill-rule:nonzero;stroke:#004e4c;stroke-width:0.324;stroke-linecap:butt;stroke-linejoin:miter;stroke-miterlimit:10;stroke-dasharray:none;stroke-opacity:1"
       transform="matrix(1.3333333,0,0,-1.3333333,654.0856,279.006)" />
    <path
       id="path262"
       d="M 0,0 V -8.467"
       style="fill:none;fill-opacity:1;fill-rule:nonzero;stroke:#004e4c;stroke-width:0.324;stroke-linecap:butt;stroke-linejoin:miter;stroke-miterlimit:10;stroke-dasharray:none;stroke-opacity:1"
       transform="matrix(1.3333333,0,0,-1.3333333,639.32347,271.84187)" />
    <path
       id="path263"
       d="M 479.493,395.174 H 492.6 v -8.222 h -13.107 z"
       style="fill:#474747;fill-opacity:1;fill-rule:nonzero;stroke:#004e4c;stroke-width:0.324;stroke-linecap:butt;stroke-linejoin:miter;stroke-miterlimit:10;stroke-dasharray:none;stroke-opacity:1"
       transform="matrix(1.3333333,0,0,-1.3333333,0,816)" />
    <path
       id="path285"
       d="m 499.926,375.535 h -7.129 v 11.743 h 7.129 z"
       style="fill:#474747;fill-opacity:1;fill-rule:nonzero;stroke:#004e4c;stroke-width:0.324;stroke-linecap:butt;stroke-linejoin:miter;stroke-miterlimit:10;stroke-dasharray:none;stroke-opacity:1"
       transform="matrix(1.3333333,0,0,-1.3333333,0,816)" />
    <path
       id="path307"
       d="M 0,0 V -3.501"
       style="fill:none;stroke:#004e4c;stroke-width:0.324;stroke-linecap:butt;stroke-linejoin:miter;stroke-miterlimit:10;stroke-dasharray:none;stroke-opacity:1"
       transform="matrix(1.3333333,0,0,-1.3333333,666.5684,295.28773)" />
    <path
       id="path308"
       d="m 479.493,386.992 h 10.176 v -11.457 h -10.176 z"
       style="fill:none;stroke:#004e4c;stroke-width:0.324;stroke-linecap:butt;stroke-linejoin:miter;stroke-miterlimit:10;stroke-dasharray:none;stroke-opacity:1"
       transform="matrix(1.3333333,0,0,-1.3333333,0,816)" />
    <path
       id="path309"
       d="M 0,0 H -3.129"
       style="fill:none;stroke:#004e4c;stroke-width:0.324;stroke-linecap:butt;stroke-linejoin:miter;stroke-miterlimit:10;stroke-dasharray:none;stroke-opacity:1"
       transform="matrix(1.3333333,0,0,-1.3333333,657.06347,315.2864)" />
    <path
       id="path310"
       d="m 0,0 h 7.842 v -10.699 h 12.266 v 2.713 h 10.855 v -2.713 H 43.88 V 51.389 L 20.976,28.486 H 14.572 V 14.999 H 0.027 Z"
       style="fill:none;fill-opacity:1;fill-rule:nonzero;stroke:#004e4c;stroke-width:0.324;stroke-linecap:butt;stroke-linejoin:miter;stroke-miterlimit:10;stroke-dasharray:none;stroke-opacity:1"
       transform="matrix(1.3333333,0,0,-1.3333333,666.5684,315.2864)" />
    <path
       id="path312"
       d="m 0,0 h 7.164 v 6.079 h -7.49 v 7.055 H -23.12 V 0 h 12.265 V -2.714 H 0 Z"
       style="fill:none;stroke:#004e4c;stroke-width:0.324;stroke-linecap:butt;stroke-linejoin:miter;stroke-miterlimit:10;stroke-dasharray:none;stroke-opacity:1"
       transform="matrix(1.3333333,0,0,-1.3333333,707.85187,364.576)" />
    <path
       id="path313"
       d="M 0,0 H 2.84"
       style="fill:none;stroke:#004e4c;stroke-width:0.324;stroke-linecap:butt;stroke-linejoin:miter;stroke-miterlimit:10;stroke-dasharray:none;stroke-opacity:1"
       transform="matrix(1.3333333,0,0,-1.3333333,720.27467,337.65667)" />
    <path
       id="path315"
       d="m 0,0 h 6.079 v -15.088 l -13.352,-13.351 -9.497,9.498 3.256,3.256 v 12.971 h 6.35 V 0 Z"
       style="fill:none;fill-opacity:1;fill-rule:nonzero;stroke:#004e4c;stroke-width:0.324;stroke-linecap:butt;stroke-linejoin:miter;stroke-miterlimit:10;stroke-dasharray:none;stroke-opacity:1"
       transform="matrix(1.3333333,0,0,-1.3333333,717.40387,364.576)" />
    <path
       id="path316"
       d="m 0,0 -11.053,11.053 v 2.605 H 1.322 V 1.318 Z"
       style="fill:none;fill-opacity:1;fill-rule:nonzero;stroke:#004e4c;stroke-width:0.324;stroke-linecap:butt;stroke-linejoin:miter;stroke-miterlimit:10;stroke-dasharray:none;stroke-opacity:1"
       transform="matrix(1.3333333,0,0,-1.3333333,687.9988,382.7872)" />
    <path
       id="path317"
       d="M 0,0 -6.524,6.525 10.05,23.099 16.575,16.575 Z"
       style="fill:none;fill-opacity:1;fill-rule:nonzero;stroke:#004e4c;stroke-width:0.324;stroke-linecap:butt;stroke-linejoin:miter;stroke-miterlimit:10;stroke-dasharray:none;stroke-opacity:1"
       transform="matrix(1.3333333,0,0,-1.3333333,385.5492,82.750667)" />
    <path
       id="path339"
       d="M 0,0 -6.096,6.096 1.262,13.454 7.358,7.358 Z"
       style="fill:#474747;fill-opacity:1;fill-rule:nonzero;stroke:#004e4c;stroke-width:0.324;stroke-linecap:butt;stroke-linejoin:miter;stroke-miterlimit:10;stroke-dasharray:none;stroke-opacity:1"
       transform="matrix(1.3333333,0,0,-1.3333333,311.29947,166.38707)" />
    <path
       id="path361"
       d="M 0,0 -6.096,6.096 4.695,16.887 10.791,10.791 Z"
       style="fill:#474747;fill-opacity:1;fill-rule:nonzero;stroke:#004e4c;stroke-width:0.324;stroke-linecap:butt;stroke-linejoin:miter;stroke-miterlimit:10;stroke-dasharray:none;stroke-opacity:1"
       transform="matrix(1.3333333,0,0,-1.3333333,319.41453,174.50213)" />
    <path
       id="path383"
       d="M 0,0 -6.096,6.096 1.946,14.138 8.042,8.042 Z"
       style="fill:#474747;fill-opacity:1;fill-rule:nonzero;stroke:#004e4c;stroke-width:0.324;stroke-linecap:butt;stroke-linejoin:miter;stroke-miterlimit:10;stroke-dasharray:none;stroke-opacity:1"
       transform="matrix(1.3333333,0,0,-1.3333333,411.44867,277.4156)" />
    <path
       id="path405"
       d="M 0,0 -6.726,6.726 7.699,21.151 14.425,14.425 Z"
       style="fill:#474747;fill-opacity:1;fill-rule:nonzero;stroke:#004e4c;stroke-width:0.324;stroke-linecap:butt;stroke-linejoin:miter;stroke-miterlimit:10;stroke-dasharray:none;stroke-opacity:1"
       transform="matrix(1.3333333,0,0,-1.3333333,488.15267,340.92867)" />
    <path
       id="path427"
       d="M 0,0 5.903,5.903 13.028,-1.222 7.125,-7.125 Z"
       style="fill:#474747;fill-opacity:1;fill-rule:nonzero;stroke:#004e4c;stroke-width:0.324;stroke-linecap:butt;stroke-linejoin:miter;stroke-miterlimit:10;stroke-dasharray:none;stroke-opacity:1"
       transform="matrix(1.3333333,0,0,-1.3333333,422.33147,266.6264)" />
    <path
       id="path449"
       d="m 308.522,393.964 h -9.094 v 8.785 h 9.094 z"
       style="fill:#474747;fill-opacity:1;fill-rule:nonzero;stroke:#004e4c;stroke-width:0.324;stroke-linecap:butt;stroke-linejoin:miter;stroke-miterlimit:10;stroke-dasharray:none;stroke-opacity:1"
       transform="matrix(1.3333333,0,0,-1.3333333,0,816)" />
    <path
       id="path471"
       d="m 363.761,346.521 h -9.457 v 5.541 h 9.457 z"
       style="fill:#474747;fill-opacity:1;fill-rule:nonzero;stroke:#004e4c;stroke-width:0.324;stroke-linecap:butt;stroke-linejoin:miter;stroke-miterlimit:10;stroke-dasharray:none;stroke-opacity:1"
       transform="matrix(1.3333333,0,0,-1.3333333,0,816)" />
    <path
       id="path493"
       d="m 0,0 v -13.806 l -15.895,-15.895 1.784,-1.787 16.994,16.997 V 5.007 L -13.806,21.696 -30.779,4.722 v -19.538 l 8.629,-8.63 13.534,13.534 V 0"
       style="fill:none;stroke:#004e4c;stroke-width:0.324;stroke-linecap:butt;stroke-linejoin:miter;stroke-miterlimit:10;stroke-dasharray:none;stroke-opacity:1"
       transform="matrix(1.3333333,0,0,-1.3333333,618.0576,295.61347)" />
    <path
       id="path494"
       d="m 463.544,391.158 h -8.619 v -7.983 h 8.619 z"
       style="fill:#474747;fill-opacity:1;fill-rule:nonzero;stroke:#004e4c;stroke-width:0.324;stroke-linecap:butt;stroke-linejoin:miter;stroke-miterlimit:10;stroke-dasharray:none;stroke-opacity:1"
       transform="matrix(1.3333333,0,0,-1.3333333,0,816)" />
    <path
       id="path516"
       d="M 0,0 -8.629,-8.629"
       style="fill:none;stroke:#004e4c;stroke-width:0.324;stroke-linecap:butt;stroke-linejoin:miter;stroke-miterlimit:10;stroke-dasharray:none;stroke-opacity:1"
       transform="matrix(1.3333333,0,0,-1.3333333,627.05787,208.6684)" />
    <path
       id="path517"
       d="M 0,0 13.921,-13.921"
       style="fill:none;stroke:#004e4c;stroke-width:0.324;stroke-linecap:butt;stroke-linejoin:miter;stroke-miterlimit:10;stroke-dasharray:none;stroke-opacity:1"
       transform="matrix(1.3333333,0,0,-1.3333333,603.72053,194.77467)" />
    <path
       id="path518"
       d="m 0,0 5.292,5.292 v 16.36 l 1.712,1.737 -3.799,3.799 H -6.999 L -26.537,7.65 h -0.022 l 14.682,-14.811 h 4.716 l 3.335,3.335"
       style="fill:none;stroke:#004e4c;stroke-width:0.324;stroke-linecap:butt;stroke-linejoin:miter;stroke-miterlimit:10;stroke-dasharray:none;stroke-opacity:1"
       transform="matrix(1.3333333,0,0,-1.3333333,625.42627,218.75987)" />
    <path
       id="path519"
       d="M 0,0 3.438,-3.438"
       style="fill:none;stroke:#004e4c;stroke-width:0.324;stroke-linecap:butt;stroke-linejoin:miter;stroke-miterlimit:10;stroke-dasharray:none;stroke-opacity:1"
       transform="matrix(1.3333333,0,0,-1.3333333,436.96787,265.52333)" />
    <path
       id="path520"
       d="M 0,0 3.438,-3.438"
       style="fill:none;stroke:#004e4c;stroke-width:0.324;stroke-linecap:butt;stroke-linejoin:miter;stroke-miterlimit:10;stroke-dasharray:none;stroke-opacity:1"
       transform="matrix(1.3333333,0,0,-1.3333333,451.332,251.1592)" />
    <path
       id="path521"
       d="m 0,0 -8.528,8.528 -8.18,-8.181 v -19.619"
       style="fill:none;stroke:#004e4c;stroke-width:0.324;stroke-linecap:butt;stroke-linejoin:miter;stroke-miterlimit:10;stroke-dasharray:none;stroke-opacity:1"
       transform="matrix(1.3333333,0,0,-1.3333333,433.65493,278.00387)" />
    <path
       id="path522"
       d="M 0,0 V -22.863"
       style="fill:none;stroke:#004e4c;stroke-width:0.324;stroke-linecap:butt;stroke-linejoin:miter;stroke-miterlimit:10;stroke-dasharray:none;stroke-opacity:1"
       transform="matrix(1.3333333,0,0,-1.3333333,399.21227,273.26987)" />
    <path
       id="path523"
       d="M 0,0 8.263,-8.263 6.879,-9.647 H 0 Z"
       style="fill:none;fill-opacity:1;fill-rule:nonzero;stroke:#004e4c;stroke-width:0.324;stroke-linecap:butt;stroke-linejoin:miter;stroke-miterlimit:2;stroke-dasharray:none;stroke-opacity:1"
       transform="matrix(1.3333333,0,0,-1.3333333,411.37787,277.54053)" />
    <path
       id="path524"
       d="m 488.528,502.36 h 22.219 v -5.638 h -22.219 z"
       style="fill:#474747;fill-opacity:1;fill-rule:nonzero;stroke:#004e4c;stroke-width:0.324;stroke-linecap:butt;stroke-linejoin:miter;stroke-miterlimit:10;stroke-dasharray:none;stroke-opacity:1"
       transform="matrix(1.3333333,0,0,-1.3333333,0,816)" />
    <path
       id="path546"
       d="m 488.466,489.579 h 7.016 v -6.065 h -7.016 z"
       style="fill:#474747;fill-opacity:1;fill-rule:nonzero;stroke:#004e4c;stroke-width:0.324;stroke-linecap:butt;stroke-linejoin:miter;stroke-miterlimit:10;stroke-dasharray:none;stroke-opacity:1"
       transform="matrix(1.3333333,0,0,-1.3333333,0,816)" />
    <path
       id="path568"
       d="M 0,0 H -2.415 -4.83 c 0,0 -3.474,-2.931 -3.474,-9.439 0,-6.508 3.474,-9.438 3.474,-9.438 h 4.857 7.008 v 3.039 3.039 H 2.442 0 v 6.4 z"
       style="fill:none;stroke:#004e4c;stroke-width:0.324;stroke-linecap:butt;stroke-linejoin:miter;stroke-miterlimit:10;stroke-dasharray:none;stroke-opacity:1"
       transform="matrix(1.3333333,0,0,-1.3333333,651.29067,146.18613)" />
    <path
       id="path569"
       d="M 0,0 V 5.773 C 12.259,5.06 22.229,-0.441 29.741,-11.078 l -7.028,-7.029"
       style="fill:none;stroke:#004e4c;stroke-width:0.324;stroke-linecap:butt;stroke-linejoin:miter;stroke-miterlimit:10;stroke-dasharray:none;stroke-opacity:1"
       transform="matrix(1.3333333,0,0,-1.3333333,660.6708,163.2512)" />
    <path
       id="path570"
       d="m 0,0 -1.994,-1.994 c 0.009,-0.01 0.018,-0.021 0.027,-0.03 1.086,-1.087 2.848,-1.087 3.934,0 0.01,0.009 0.018,0.02 0.027,0.03 z"
       style="fill:none;stroke:#004e4c;stroke-width:0.162;stroke-linecap:round;stroke-linejoin:round;stroke-miterlimit:10;stroke-dasharray:0.647, 0.647;stroke-dashoffset:0;stroke-opacity:1"
       transform="matrix(1.3333333,0,0,-1.3333333,555.0768,379.8092)" />
    <path
       id="path571"
       d="M 0,0 2.396,2.396"
       style="fill:none;stroke:#004e4c;stroke-width:0.324;stroke-linecap:butt;stroke-linejoin:miter;stroke-miterlimit:10;stroke-dasharray:none;stroke-opacity:1"
       transform="matrix(1.3333333,0,0,-1.3333333,552.03333,382.9224)" />
    <path
       id="path572"
       d="m 0,0 -1.994,-1.994 c -0.01,0.009 -0.021,0.018 -0.03,0.027 -1.087,1.086 -1.087,2.848 0,3.934 0.009,0.01 0.02,0.018 0.03,0.027 z"
       style="fill:none;stroke:#004e4c;stroke-width:0.162;stroke-linecap:round;stroke-linejoin:round;stroke-miterlimit:10;stroke-dasharray:0.647, 0.647;stroke-dashoffset:0;stroke-opacity:1"
       transform="matrix(1.3333333,0,0,-1.3333333,560.62867,385.36107)" />
    <path
       id="path573"
       d="M 0,0 2.396,2.396"
       style="fill:none;stroke:#004e4c;stroke-width:0.324;stroke-linecap:butt;stroke-linejoin:miter;stroke-miterlimit:10;stroke-dasharray:none;stroke-opacity:1"
       transform="matrix(1.3333333,0,0,-1.3333333,557.51547,388.40453)" />
    <path
       id="path574"
       d="M 0,0 -35.972,35.972 -24.133,47.811 11.839,11.839 Z"
       style="fill:none;fill-opacity:1;fill-rule:nonzero;stroke:#004e4c;stroke-width:0.324;stroke-linecap:butt;stroke-linejoin:miter;stroke-miterlimit:10;stroke-dasharray:none;stroke-opacity:1"
       transform="matrix(1.3333333,0,0,-1.3333333,568.7156,425.04893)" />
    <path
       id="path575"
       d="m 303.095,505.329 h -11.647 v 5.692 h 11.647 z"
       style="fill:none;fill-opacity:1;fill-rule:nonzero;stroke:none"
       transform="matrix(1.3333333,0,0,-1.3333333,0,816)" />
    <path
       id="path576"
       d="m 0,0 5.604,-5.604 25.145,25.145 -5.567,5.641 z"
       style="fill:none;fill-opacity:1;fill-rule:nonzero;stroke:#004e4c;stroke-width:0.324;stroke-linecap:butt;stroke-linejoin:miter;stroke-miterlimit:10;stroke-dasharray:none;stroke-opacity:1"
       transform="matrix(1.3333333,0,0,-1.3333333,406.74213,183.2728)" />
    <path
       id="path577"
       d="M 0,0 V -26.466"
       style="fill:none;stroke:#004e4c;stroke-width:0.324;stroke-linecap:butt;stroke-linejoin:miter;stroke-miterlimit:10;stroke-dasharray:none;stroke-opacity:1"
       transform="matrix(1.3333333,0,0,-1.3333333,801.1648,366.7748)" />
    <path
       id="path578"
       d="m 479.408,460.111 h -2.588 v 2.588 h 2.588 z"
       style="fill:none;fill-opacity:1;fill-rule:nonzero;stroke:none"
       transform="matrix(1.3333333,0,0,-1.3333333,0,816)" />
    <path
       id="path579"
       d="m 502.778,475.21 h -5.791 v 2.588 h 5.791 z"
       style="fill:none;fill-opacity:1;fill-rule:nonzero;stroke:none"
       transform="matrix(1.3333333,0,0,-1.3333333,0,816)" />
    <path
       id="path580"
       d="m 0,0 1.83,-1.83 -4.095,-4.095 -1.83,1.83 z"
       style="fill:none;fill-opacity:1;fill-rule:nonzero;stroke:none"
       transform="matrix(1.3333333,0,0,-1.3333333,627.61387,214.9604)" />
    <path
       id="path581"
       d="M 0,0 Z"
       style="fill:none;fill-opacity:1;fill-rule:nonzero;stroke:none"
       transform="matrix(1.3333333,0,0,-1.3333333,584.49413,409.2564)" />
    <path
       id="path582"
       d="M 0,0 -0.594,-0.603 H -0.632 Z"
       style="fill:none;fill-opacity:1;fill-rule:nonzero;stroke:none"
       transform="matrix(1.3333333,0,0,-1.3333333,523.74227,480.64787)" />
    <path
       id="path647"
       d="m 539.381,360.62 h -2.588 v 2.588 h 2.588 z"
       style="fill:none;fill-opacity:1;fill-rule:nonzero;stroke:none"
       transform="matrix(1.3333333,0,0,-1.3333333,0,816)" />
    <path
       id="path648"
       d="m 539.381,340.399 h -2.588 v 2.588 h 2.588 z"
       style="fill:none;fill-opacity:1;fill-rule:nonzero;stroke:none"
       transform="matrix(1.3333333,0,0,-1.3333333,0,816)" />
    <path
       id="path649"
       d="m 542.131,354.848 h -2.588 v 2.588 h 2.588 z"
       style="fill:none;fill-opacity:1;fill-rule:nonzero;stroke:none"
       transform="matrix(1.3333333,0,0,-1.3333333,0,816)" />
    <path
       id="path689"
       d="m 0,0 -7.964,7.964 5.752,5.752 7.964,-7.964 z"
       style="fill:none;fill-opacity:1;fill-rule:nonzero;stroke:none"
       transform="matrix(1.3333333,0,0,-1.3333333,649.928,475.6504)" />
    <text
       xml:space="preserve"
       style="font-weight:bold;font-size:8px;line-height:1;font-family:Cinzel;-inkscape-font-specification:'Cinzel Bold';writing-mode:lr-tb;direction:ltr;fill:#474747;fill-opacity:1;stroke-width:2;paint-order:stroke fill markers"
       x="319.20905"
       y="188.13559"
       id="text714"><tspan
         id="tspan714"
         x="319.20905"
         y="188.13559">Orchard Suite</tspan><tspan
         x="319.20905"
         y="196.13559"
         id="tspan715">(2011)</tspan></text>
    <text
       xml:space="preserve"
       style="font-weight:bold;font-size:8px;line-height:1;font-family:Cinzel;-inkscape-font-specification:'Cinzel Bold';writing-mode:lr-tb;direction:ltr;fill:#474747;fill-opacity:1;stroke-width:2;paint-order:stroke fill markers"
       x="747.45764"
       y="423.16385"
       id="text716"><tspan
         id="tspan716"
         x="747.45764"
         y="423.16385">Cottonwood</tspan><tspan
         x="747.45764"
         y="431.16385"
         id="tspan717">Suite</tspan><tspan
         x="747.45764"
         y="439.16385"
         id="tspan718">(2290)</tspan></text>
    <text
       xml:space="preserve"
       style="font-weight:bold;font-size:8px;line-height:1;font-family:Cinzel;-inkscape-font-specification:'Cinzel Bold';writing-mode:lr-tb;direction:ltr;fill:#474747;fill-opacity:1;stroke-width:2;paint-order:stroke fill markers"
       x="359.32202"
       y="128.81355"
       id="text719"><tspan
         id="tspan719"
         x="359.32202"
         y="128.81355">Walnut </tspan><tspan
         x="359.32202"
         y="136.81355"
         id="tspan720">(2013A)</tspan></text>
    <text
       xml:space="preserve"
       style="font-weight:bold;font-size:8px;line-height:1;font-family:Cinzel;-inkscape-font-specification:'Cinzel Bold';writing-mode:lr-tb;direction:ltr;fill:#474747;fill-opacity:1;stroke-width:2;paint-order:stroke fill markers"
       x="387.00565"
       y="154.80226"
       id="text721"><tspan
         id="tspan721"
         x="387.00565"
         y="154.80226">Oak</tspan><tspan
         x="387.00565"
         y="162.80226"
         id="tspan722">(2013B)</tspan></text>
    <text
       xml:space="preserve"
       style="font-weight:bold;font-size:8px;line-height:1;font-family:Cinzel;-inkscape-font-specification:'Cinzel Bold';writing-mode:lr-tb;direction:ltr;fill:#474747;fill-opacity:1;stroke-width:2;paint-order:stroke fill markers"
       x="597.74011"
       y="406.77966"
       id="text723"><tspan
         id="tspan723"
         x="597.74011"
         y="406.77966">Computer</tspan><tspan
         x="597.74011"
         y="414.77966"
         id="tspan724">Lounge</tspan></text>
    <text
       xml:space="preserve"
       style="font-weight:bold;font-size:8px;line-height:1;font-family:Cinzel;-inkscape-font-specification:'Cinzel Bold';writing-mode:lr-tb;direction:ltr;fill:#474747;fill-opacity:1;stroke-width:2;paint-order:stroke fill markers"
       x="635.02826"
       y="498.87006"
       id="text725"><tspan
         id="tspan725"
         x="635.02826"
         y="498.87006">North</tspan><tspan
         x="635.02826"
         y="506.87006"
         id="tspan726">Lounge</tspan><tspan
         x="635.02826"
         y="514.87006"
         id="tspan727">(2201)</tspan></text>
    <text
       xml:space="preserve"
       style="font-weight:bold;font-size:8px;line-height:1;font-family:Cinzel;-inkscape-font-specification:'Cinzel Bold';writing-mode:lr-tb;direction:ltr;fill:#474747;fill-opacity:1;stroke-width:2;paint-order:stroke fill markers"
       x="643.50281"
       y="240.67796"
       id="text728"><tspan
         id="tspan728"
         x="643.50281"
         y="240.67796">Fireplace</tspan><tspan
         x="643.50281"
         y="248.67796"
         id="tspan729">Lounge</tspan><tspan
         x="643.50281"
         y="256.67798"
         id="tspan730">(2050)</tspan></text>
  </g>
</svg>
